<?xml version="1.0" standalone="no"?>
<!DOCTYPE svg PUBLIC "-//W3C//DTD SVG 1.1//EN" "http://www.w3.org/Graphics/SVG/1.1/DTD/svg11.dtd" >
<svg xmlns="http://www.w3.org/2000/svg">
<metadata>
This is a custom SVG webfont generated by Font Squirrel.
Designer    : Daniel Utz
Foundry     : FSI
Foundry URL : httpwwwfontfontcom
</metadata>
<defs>
<font id="webfontert44Tz6" horiz-adv-x="520" >
<font-face units-per-em="1000" ascent="777" descent="-223" />
<missing-glyph horiz-adv-x="250" />
<glyph unicode=" "  horiz-adv-x="250" />
<glyph unicode="&#x09;" horiz-adv-x="250" />
<glyph unicode="&#xa0;" horiz-adv-x="250" />
<glyph unicode="!" horiz-adv-x="363" d="M182 -10q-27 0 -46 19t-19 46t19 46t46 19q26 0 45 -19t19 -46t-19 -46t-45 -19zM130 263v396q0 22 15 37t37 15q21 0 36 -15t15 -37v-396q0 -21 -15 -36t-36 -15q-22 0 -37 15t-15 36z" />
<glyph unicode="&#x22;" horiz-adv-x="440" d="M81 517v142q0 22 15 37t37 15q21 0 36 -15t15 -37v-142q0 -22 -15 -37t-36 -15q-22 0 -37 15t-15 37zM255 517v142q0 22 15.5 37t36.5 15q22 0 37 -15t15 -37v-142q0 -22 -15 -37t-37 -15q-21 0 -36.5 15t-15.5 37z" />
<glyph unicode="#" d="M434 184h-46l-23 -154q-2 -17 -15.5 -28.5t-30.5 -11.5q-18 0 -32.5 14t-14.5 33q0 5 2 17l19 130h-115l-23 -154q-2 -17 -15.5 -28.5t-30.5 -11.5q-18 0 -32.5 14t-14.5 33q0 5 2 17l19 130h-33q-20 0 -32.5 12.5t-12.5 31.5q0 20 12.5 32.5t32.5 12.5h46l23 155h-34 q-20 0 -32.5 12.5t-12.5 31.5q0 20 13 32.5t32 12.5h47l23 154q2 17 15.5 28.5t30.5 11.5q19 0 33.5 -13.5t14.5 -33.5q0 -4 -1 -11l-20 -136h114l23 154q2 17 15.5 28.5t30.5 11.5q19 0 33.5 -13.5t14.5 -33.5q0 -4 -1 -11l-20 -136h31q20 0 33 -13t13 -32t-13 -31.5 t-33 -12.5h-45l-23 -155h33q20 0 33 -13t13 -32t-13 -31.5t-33 -12.5zM306 273l23 155h-115l-23 -155h115z" />
<glyph unicode="$" d="M317 -3v-84q0 -22 -15.5 -37t-36.5 -15q-22 0 -37 15t-15 37v80q-74 8 -138 35q-31 13 -31 47q0 22 13 36.5t35 14.5q16 0 32 -7q71 -31 130 -31q55 0 85 26t30 75q0 66 -87 105l-120 53q-118 51 -118 173q0 71 48 120t121 65v83q0 22 15 37t37 15q21 0 36 -15t15 -37 v-80q63 -6 119 -30q39 -17 39 -51q0 -20 -14.5 -34t-35.5 -14q-10 0 -19 4q-3 1 -15.5 6.5t-21.5 8.5t-25 7t-35.5 6t-42.5 2q-45 0 -79.5 -21t-34.5 -67q0 -33 15.5 -52t47.5 -34l114 -50q69 -30 108.5 -72t39.5 -115q0 -76 -43 -132t-116 -73z" />
<glyph unicode="%" horiz-adv-x="895" d="M369 560v-90q0 -66 -41.5 -108.5t-108.5 -42.5q-66 0 -108.5 41.5t-42.5 109.5v90q0 66 41.5 108.5t109.5 42.5q65 0 107.5 -42t42.5 -109zM285 470v90q0 32 -17 49.5t-49 17.5q-67 0 -67 -67v-90q0 -67 67 -67q32 0 49 17.5t17 49.5zM193 51l446 643q11 17 32 17 q15 0 26.5 -11t11.5 -27q0 -13 -7 -23l-445 -643q-12 -17 -32 -17q-15 0 -27 11.5t-12 27.5q0 12 7 22zM827 231v-90q0 -66 -41.5 -108.5t-108.5 -42.5q-66 0 -108.5 41.5t-42.5 109.5v90q0 66 41.5 108.5t109.5 42.5q65 0 107.5 -42t42.5 -109zM743 141v90q0 32 -17 49.5 t-49 17.5q-67 0 -67 -67v-90q0 -67 67 -67q32 0 49 17.5t17 49.5z" />
<glyph unicode="&#x26;" horiz-adv-x="696" d="M562 6l-78 82q-102 -98 -216 -98q-85 0 -145 57.5t-60 139.5q0 61 35 113q34 49 98 90l-15 16q-62 65 -62 137q0 70 51.5 119t123.5 49t123 -49t51 -119q0 -21 -15 -36.5t-36 -15.5q-22 0 -37 15.5t-15 36.5q0 28 -21 50t-50 22t-50 -22t-21 -50q0 -31 33 -65l228 -239 l76 88q15 18 39 18q21 0 36.5 -14.5t15.5 -36.5q0 -19 -12 -34l-84 -97l82 -85q14 -14 14 -36q0 -21 -15.5 -36.5t-36.5 -15.5t-37 16zM413 163l-147 155q-56 -33 -82 -71q-18 -28 -18 -60q0 -40 30.5 -70.5t71.5 -30.5t72.5 19t72.5 58z" />
<glyph unicode="'" horiz-adv-x="265" d="M81 517v142q0 22 15 37t37 15q21 0 36 -15t15 -37v-142q0 -22 -15 -37t-36 -15q-22 0 -37 15t-15 37z" />
<glyph unicode="(" horiz-adv-x="311" d="M201 -145q-32 0 -46 27q-105 199 -105 435q0 230 105 434q14 28 46 28q21 0 36 -16t15 -36q0 -12 -6 -24q-93 -183 -93 -386q0 -218 93 -387q6 -10 6 -23q0 -21 -15 -36.5t-36 -15.5z" />
<glyph unicode=")" horiz-adv-x="315" d="M160 -118q-14 -27 -46 -27q-20 0 -35.5 15.5t-15.5 36.5q0 13 6 23q93 169 93 387q0 203 -93 386q-6 12 -6 24q0 20 15 36t36 16q32 0 46 -28q105 -204 105 -434q0 -236 -105 -435z" />
<glyph unicode="*" horiz-adv-x="448" d="M272 384l-48 66l-48 -66q-12 -18 -35 -18q-18 0 -31 12.5t-13 31.5q0 15 8 26l48 66l-78 25q-30 9 -30 42q0 17 12.5 30t30.5 13q10 0 15 -2l77 -25v82q0 18 13 31t31 13t31 -13t13 -31v-82l77 24q7 3 15 3q16 0 29.5 -13t13.5 -31q0 -31 -30 -41l-78 -25l48 -66 q9 -12 9 -26q0 -18 -12.5 -31t-31.5 -13q-22 0 -36 18z" />
<glyph unicode="+" d="M457 205h-146v-163q0 -22 -14.5 -37t-36.5 -15q-21 0 -36.5 15t-15.5 37v163h-145q-21 0 -35.5 14t-14.5 35t14.5 35t35.5 14h145v162q0 22 15.5 37t36.5 15q22 0 36.5 -15t14.5 -37v-162h146q21 0 35.5 -14t14.5 -35t-14.5 -35t-35.5 -14z" />
<glyph unicode="," horiz-adv-x="201" d="M149 53l-48 -141q-5 -16 -19 -25.5t-30 -9.5q-21 0 -36.5 15.5t-15.5 36.5q0 8 3 17l48 140q5 16 19 25.5t30 9.5q20 0 36 -15t16 -36q0 -8 -3 -17z" />
<glyph unicode="-" horiz-adv-x="438" d="M335 249h-233q-20 0 -34 14.5t-14 34.5t13.5 34.5t34.5 14.5h233q20 0 34.5 -14.5t14.5 -34.5t-14.5 -34.5t-34.5 -14.5z" />
<glyph unicode="." horiz-adv-x="201" d="M101 -8q-27 0 -46 19t-19 46q0 26 19 45t46 19q26 0 45 -19t19 -45q0 -27 -19 -46t-45 -19z" />
<glyph unicode="/" horiz-adv-x="546" d="M103 61l244 617q6 15 20 24t29 9q21 0 36 -16t15 -35q0 -11 -4 -20l-244 -617q-6 -15 -20 -24t-29 -9q-21 0 -36 16t-15 35q0 11 4 20z" />
<glyph unicode="0" horiz-adv-x="577" d="M518 481v-261q0 -103 -63 -166q-64 -64 -167 -64q-102 0 -166 64q-63 63 -63 166v261q0 103 63 166q64 64 166 64q103 0 166 -63q64 -64 64 -167zM415 211v279q0 60 -33.5 93t-93.5 33t-93 -32.5t-33 -93.5v-279q0 -60 33 -93t93 -33t93.5 33t33.5 93z" />
<glyph unicode="1" horiz-adv-x="384" d="M186 42v538l-90 -52q-14 -9 -29 -9q-21 0 -35 14.5t-14 34.5q0 29 26 44l158 91q14 8 29 8q24 0 41 -17t17 -41v-611q0 -22 -15 -37t-36 -15q-22 0 -37 15t-15 37z" />
<glyph unicode="2" horiz-adv-x="494" d="M393 0h-308q-24 0 -41 17t-17 41q0 21 13 37l252 303q42 51 42 110q0 46 -28 77t-75 31q-63 0 -118 -28q-16 -8 -26 -8q-20 0 -35 13.5t-15 33.5q0 31 28 45q74 39 166 39q93 0 149 -58q57 -57 57 -150q0 -36 -12 -70t-23.5 -52t-34.5 -47q-7 -9 -41 -50l-80 -96l-75 -90 h222q22 0 36.5 -14t14.5 -34q0 -22 -14.5 -36t-36.5 -14z" />
<glyph unicode="3" horiz-adv-x="508" d="M217 313h-19q-22 0 -37 14.5t-15 36.5q0 21 15 36t37 15h13q49 0 84.5 28.5t35.5 68.5q0 47 -27.5 75.5t-76.5 28.5q-65 0 -120 -27q-11 -6 -24 -6q-19 0 -34 13.5t-15 33.5q0 31 28 45q73 36 165 36q91 0 149 -55t58 -144q0 -87 -73 -144q93 -63 93 -165 q0 -94 -63.5 -153.5t-163.5 -59.5q-91 0 -171 37q-29 15 -29 45q0 20 15 34t37 14q8 0 22 -6q61 -29 126 -29q50 0 87 30.5t37 87.5q0 45 -39.5 77.5t-94.5 32.5z" />
<glyph unicode="4" horiz-adv-x="497" d="M442 144h-60v-103q0 -22 -15 -36.5t-37 -14.5q-21 0 -36 14.5t-15 36.5v103h-198q-24 0 -41 15.5t-17 39.5q0 11 4 20l170 458q13 34 50 34q20 0 34 -15t14 -37q0 -9 -3 -18l-151 -399h138v100q0 22 15 37t36 15q22 0 37 -15t15 -37v-100h60q21 0 35.5 -14t14.5 -35 t-14.5 -35t-35.5 -14z" />
<glyph unicode="5" horiz-adv-x="522" d="M468 237v-33q0 -88 -63 -151t-151 -63q-93 0 -171 38q-29 14 -29 44q0 20 14.5 34.5t36.5 14.5q12 0 24 -7q54 -29 125 -29q45 0 77.5 36t32.5 83v33q0 47 -32.5 83t-77.5 36q-56 0 -105 -26q-14 -7 -27 -7q-24 0 -41 17t-17 41v256q0 26 19 45t45 19h271 q20 0 34.5 -14.5t14.5 -34.5t-14 -34.5t-35 -14.5h-232v-164q42 12 87 12q88 0 151 -62.5t63 -151.5z" />
<glyph unicode="6" horiz-adv-x="527" d="M486 237v-33q0 -88 -63 -151t-151 -63t-150.5 63t-62.5 151v164q0 155 64 243q74 100 214 100q34 0 69 -8q19 -4 30 -17t11 -31q0 -19 -14.5 -32.5t-35.5 -13.5q-7 0 -25 3.5t-35 3.5t-32 -2t-40.5 -13.5t-44 -31t-34.5 -59t-21 -93.5q45 34 107 34q88 0 151 -62.5 t63 -151.5zM383 195v51q0 46 -32.5 78t-78.5 32q-45 0 -77.5 -32t-32.5 -78v-51q0 -46 32.5 -78t77.5 -32q46 0 78.5 32t32.5 78z" />
<glyph unicode="7" horiz-adv-x="475" d="M105 61l227 542h-273q-21 0 -35.5 14t-14.5 34q0 21 14 35.5t36 14.5h335q24 0 41 -17.5t17 -40.5q0 -12 -4 -21l-249 -600q-13 -32 -48 -32q-21 0 -35.5 15t-14.5 36q0 11 4 20z" />
<glyph unicode="8" horiz-adv-x="554" d="M406 369q42 -31 68 -75t26 -93q0 -87 -65.5 -149t-157.5 -62t-157.5 62t-65.5 149q0 107 92 168q-76 57 -76 147q0 81 60.5 138t146.5 57t146.5 -57t60.5 -138q0 -83 -78 -147zM381 516q0 42 -30.5 71t-73.5 29t-73 -29t-30 -71q0 -41 30 -71t73 -30t73.5 30t30.5 71z M397 201q0 48 -35.5 83t-84.5 35t-84.5 -35t-35.5 -83t35 -82t85 -34t85 34t35 82z" />
<glyph unicode="9" horiz-adv-x="527" d="M468 498v-183q0 -77 -17 -136.5t-44 -94t-65 -56.5t-74.5 -30t-77.5 -8q-30 0 -69 7q-18 4 -29.5 17t-11.5 31q0 20 14.5 34t35.5 14q6 0 25 -4t35 -4q34 0 60.5 8t52.5 28.5t41.5 62.5t19.5 103q-46 -37 -110 -37q-88 0 -150.5 63t-62.5 151v34q0 88 62.5 150.5 t150.5 62.5t151 -62.5t63 -150.5zM365 456v50q0 45 -32.5 77.5t-78.5 32.5q-45 0 -77.5 -32.5t-32.5 -77.5v-50q0 -46 32.5 -78.5t77.5 -32.5q46 0 78.5 32.5t32.5 78.5z" />
<glyph unicode=":" horiz-adv-x="201" d="M101 -10q-27 0 -46 19t-19 46t19 46t46 19q26 0 45 -19t19 -46t-19 -46t-45 -19zM101 388q-27 0 -46 19t-19 45q0 27 19 46t46 19q26 0 45 -19t19 -46q0 -26 -19 -45t-45 -19z" />
<glyph unicode=";" horiz-adv-x="201" d="M165 452q0 -26 -19 -45t-46 -19t-45.5 19t-18.5 45q0 27 18.5 46t45.5 19t46 -19t19 -46zM149 53l-48 -141q-5 -16 -19 -25.5t-30 -9.5q-20 0 -36 15.5t-16 36.5q0 8 3 17l48 140q5 16 19 25.5t30 9.5q20 0 36 -15t16 -36q0 -8 -3 -17z" />
<glyph unicode="&#x3c;" d="M400 -2l-323 201q-30 18 -30 55q0 36 30 54l322 201q14 8 27 8q22 0 36 -14.5t14 -34.5q0 -28 -24 -42l-284 -172l284 -172q24 -14 24 -43q0 -21 -14.5 -35t-34.5 -14q-13 0 -27 8z" />
<glyph unicode="=" d="M458 309h-397q-20 0 -34 14.5t-14 34.5t13.5 34.5t34.5 14.5h397q20 0 34.5 -14.5t14.5 -34.5t-14.5 -34.5t-34.5 -14.5zM458 103h-397q-20 0 -34 14.5t-14 34.5t13.5 34.5t34.5 14.5h397q20 0 34.5 -14.5t14.5 -34.5t-14.5 -34.5t-34.5 -14.5z" />
<glyph unicode="&#x3e;" d="M443 199l-323 -201q-14 -8 -27 -8q-20 0 -34.5 14t-14.5 35q0 29 24 43l284 172l-284 172q-24 14 -24 42q0 20 14 34.5t36 14.5q13 0 27 -8l322 -201q30 -18 30 -54q0 -37 -30 -55z" />
<glyph unicode="?" horiz-adv-x="480" d="M293 55q0 -27 -19 -46t-46 -19q-26 0 -45 19t-19 46t19 46t45 19q27 0 46 -19t19 -46zM280 289v-26q0 -21 -15 -36t-37 -15q-21 0 -36 15t-15 36v20q0 34 15.5 66.5t42.5 51.5l59 42q38 27 38 78q0 43 -30 69t-72 26q-52 0 -101 -26q-12 -7 -26 -7q-20 0 -34.5 14 t-14.5 35q0 31 30 45q69 34 151 34q83 0 141.5 -57t58.5 -137q0 -93 -74 -147l-64 -46q-17 -12 -17 -35z" />
<glyph unicode="@" horiz-adv-x="737" d="M638 446v-267q0 -20 -11.5 -36.5t-29.5 -23.5q-60 -24 -127 -24q-75 0 -128 53t-53 128t53 128t128 53h64q0 64 -48.5 111.5t-112.5 47.5q-67 0 -114.5 -47t-47.5 -114v-355q0 -60 40 -105q40 -46 97 -54q20 -3 32 -16t12 -31q0 -21 -14 -35t-36 -14t-55 11 q-67 23 -114 78q-65 74 -65 173v339q0 110 78 187.5t187 77.5t187 -77.5t78 -187.5zM535 200v161h-65q-33 0 -55.5 -23.5t-22.5 -61.5t22.5 -62t55.5 -24q23 0 65 10z" />
<glyph unicode="A" horiz-adv-x="584" d="M469 24l-54 152h-246l-55 -152q-13 -34 -49 -34q-21 0 -36 15t-15 37q0 8 3 17l220 614q6 16 21.5 27t33.5 11t33.5 -11t21.5 -28l220 -613q3 -7 3 -17q0 -21 -15 -36.5t-37 -15.5q-36 0 -49 34zM379 277l-87 242l-87 -242h174z" />
<glyph unicode="B" horiz-adv-x="557" d="M303 0h-170q-27 0 -46 19t-19 45v573q0 26 19 45t46 19h163q88 0 142.5 -53.5t54.5 -140.5q0 -84 -67 -139q86 -58 86 -160q0 -94 -57.5 -151t-151.5 -57zM174 414h107q45 0 75.5 27t30.5 66q0 93 -91 93h-122v-186zM174 101h129q51 0 77 28t26 79q0 44 -34 74.5 t-85 30.5h-1h-1h-1h-1h-1h-1h-1h-1h-1h-1h-1h-1h-1h-1h-1h-1h-1h-1h-1h-1h-1h-1h-1h-1h-1h-1h-1h-1h-1h-1h-1h-1h-1h-1h-1h-1h-1h-1h-1h-1h-1h-1h-1h-1h-1h-1h-1h-1h-1h-1h-1h-1h-1h-1h-1h-1h-1h-1h-1h-1h-1h-1h-1h-1h-1h-1h-1h-1h-1h-1h-1h-1h-1h-1h-1h-1h-1h-1h-1h-1h-1 h-1h-1h-1h-1h-1h-1h-1h-1h-1h-1h-1h-1h-1h-1h-1h-1h-1h-1h-1h-1h-1h-1h-1h-9v-212z" />
<glyph unicode="C" horiz-adv-x="513" d="M50 249v203q0 116 71 187.5t187 71.5q81 0 154 -47q24 -16 24 -43q0 -20 -15 -34.5t-37 -14.5q-13 0 -27 8q-53 33 -99 33q-72 0 -112 -43.5t-40 -117.5v-203q0 -74 40 -117.5t112 -43.5q44 0 98 34q14 9 29 9q21 0 36 -14.5t15 -35.5q0 -28 -24 -44q-73 -47 -154 -47 q-116 0 -187 71.5t-71 187.5z" />
<glyph unicode="D" horiz-adv-x="590" d="M265 0h-132q-27 0 -46 19t-19 45v573q0 26 19 45t46 19h132q123 0 199 -75t76 -197v-157q0 -122 -76 -197t-199 -75zM434 270v161q0 80 -44 124.5t-124 44.5h-92v-499h92q80 0 124 45t44 124z" />
<glyph unicode="E" horiz-adv-x="514" d="M430 0h-297q-26 0 -45.5 18.5t-19.5 45.5v573q0 26 19 45t46 19h290q22 0 37 -15t15 -37q0 -21 -15 -35t-37 -14h-249v-186h236q22 0 37 -14.5t15 -36.5q0 -21 -15 -35.5t-37 -14.5h-236v-212h256q21 0 36.5 -14.5t15.5 -35.5t-15.5 -36t-36.5 -15z" />
<glyph unicode="F" horiz-adv-x="486" d="M407 313h-233v-271q0 -22 -15.5 -37t-36.5 -15q-22 0 -38 15t-16 37v595q0 26 19 45t46 19h287q22 0 37 -14.5t15 -36.5q0 -21 -15 -35.5t-37 -14.5h-246v-186h233q22 0 37 -14.5t15 -36.5q0 -21 -15 -35.5t-37 -14.5z" />
<glyph unicode="G" horiz-adv-x="575" d="M419 106v185h-98q-21 0 -36 14.5t-15 36.5q0 21 15 36t36 15h139q27 0 46 -19t19 -46v-244q0 -42 -38 -59q-80 -35 -179 -35q-116 0 -187 71.5t-71 187.5v203q0 116 71 187.5t187 71.5q92 0 166 -45q25 -16 25 -46q0 -20 -15 -34t-37 -14q-14 0 -27 8q-54 33 -112 33 q-72 0 -112 -42t-40 -115v-212q0 -73 40 -114.5t112 -41.5q55 0 111 18z" />
<glyph unicode="H" horiz-adv-x="608" d="M434 43v270h-260v-270q0 -22 -15.5 -37.5t-36.5 -15.5q-22 0 -38 15.5t-16 37.5v615q0 22 15.5 37.5t37.5 15.5q21 0 37 -15.5t16 -37.5v-244h260v244q0 22 15.5 37.5t37.5 15.5t37.5 -15.5t15.5 -37.5v-615q0 -22 -15 -37.5t-37 -15.5t-38 15.5t-16 37.5z" />
<glyph unicode="I" horiz-adv-x="242" d="M68 43v615q0 22 15.5 37.5t37.5 15.5q21 0 37 -15.5t16 -37.5v-615q0 -22 -16 -37.5t-37 -15.5q-22 0 -37.5 15.5t-15.5 37.5z" />
<glyph unicode="J" horiz-adv-x="393" d="M224 187v472q0 22 15.5 37t36.5 15q22 0 38 -15t16 -37v-472q0 -81 -58 -139q-56 -58 -139 -58q-37 0 -67 6q-19 4 -31 17t-12 31q0 23 15 36.5t34 13.5q6 0 25.5 -3t35.5 -3q36 0 63 27q28 28 28 72z" />
<glyph unicode="K" horiz-adv-x="528" d="M423 8l-249 287v-252q0 -22 -16 -37.5t-37 -15.5q-22 0 -37.5 15.5t-15.5 37.5v615q0 22 15.5 37.5t37.5 15.5q21 0 37 -15.5t16 -37.5v-227l237 263q15 17 39 17q21 0 36 -15t15 -37q0 -20 -13 -34l-240 -262l253 -287q13 -14 13 -34q0 -21 -15.5 -36.5t-36.5 -15.5 q-24 0 -39 18z" />
<glyph unicode="L" horiz-adv-x="496" d="M431 0h-298q-27 0 -46 19.5t-19 45.5v593q0 22 16 37.5t37 15.5q22 0 37.5 -16t15.5 -38v-556h256q22 0 37 -14.5t15 -35.5q0 -22 -14.5 -36.5t-36.5 -14.5z" />
<glyph unicode="M" horiz-adv-x="750" d="M576 43v437l-150 -272q-17 -30 -51 -30t-51 30l-150 272v-437q0 -22 -16 -37.5t-37 -15.5q-22 0 -37.5 15.5t-15.5 37.5v610q0 24 17.5 41t40.5 17q35 0 52 -31l197 -352l197 352q17 31 52 31q24 0 41 -17t17 -41v-610q0 -22 -16 -37.5t-38 -15.5q-21 0 -36.5 15.5 t-15.5 37.5z" />
<glyph unicode="N" horiz-adv-x="614" d="M438 20l-264 463v-441q0 -22 -15.5 -37t-36.5 -15q-22 0 -38 15t-16 37v611q0 24 17.5 41t40.5 17q35 0 51 -29l263 -464v441q0 22 16 37t38 15q21 0 36.5 -15t15.5 -37v-611q0 -24 -17.5 -41t-40.5 -17q-32 0 -50 30z" />
<glyph unicode="O" horiz-adv-x="591" d="M541 465v-229q0 -110 -67.5 -178t-177.5 -68t-178 68t-68 178v229q0 110 68 178t178 68t177.5 -68t67.5 -178zM435 230v241q0 67 -36.5 104.5t-102.5 37.5q-67 0 -103.5 -37.5t-36.5 -104.5v-241q0 -67 36.5 -104.5t103.5 -37.5q66 0 102.5 37.5t36.5 104.5z" />
<glyph unicode="P" horiz-adv-x="544" d="M68 43v594q0 26 19 45t46 19h167q94 0 153 -59t59 -155q0 -95 -58 -152t-154 -57h-126v-235q0 -22 -16 -37.5t-37 -15.5q-22 0 -37.5 15.5t-15.5 37.5zM174 379h126q45 0 75.5 24.5t30.5 83.5q0 53 -27.5 83t-78.5 30h-126v-221z" />
<glyph unicode="Q" horiz-adv-x="597" d="M575 -100l-353 99q-80 22 -126 84.5t-46 152.5v229q0 110 68 178t178 68t177.5 -68t67.5 -178v-229q0 -131 -92 -195l154 -41q17 -4 27.5 -18t10.5 -31q0 -21 -15 -37t-37 -16q-4 0 -14 2zM435 232v237q0 67 -36.5 105.5t-102.5 38.5t-103 -38.5t-37 -105.5v-237 q0 -67 37 -105.5t103 -38.5t102.5 38.5t36.5 105.5z" />
<glyph unicode="R" horiz-adv-x="554" d="M431 15l-167 279h-90v-252q0 -21 -16 -36.5t-37 -15.5q-22 0 -37.5 15t-15.5 37v595q0 26 19 45t46 19h186q91 0 147 -56q58 -58 58 -150t-57 -147q-35 -33 -87 -47l139 -233q8 -13 8 -27q0 -20 -15.5 -35.5t-36.5 -15.5q-30 0 -44 25zM174 395h145q42 0 70.5 22.5 t28.5 77.5q0 46 -26 75.5t-73 29.5h-145v-205z" />
<glyph unicode="S" horiz-adv-x="503" d="M277 294l-120 53q-118 51 -118 173q0 85 68 138t158 53t165 -33q39 -17 39 -51q0 -20 -14.5 -34t-35.5 -14q-10 0 -19 4q-3 1 -15.5 6.5t-21.5 8.5t-25 7t-35.5 6t-42.5 2q-45 0 -79.5 -21t-34.5 -67q0 -33 15.5 -52t47.5 -34l114 -50q69 -30 108.5 -72t39.5 -115 q0 -92 -61 -152t-161 -60q-89 0 -179 38q-31 13 -31 47q0 22 13 36.5t35 14.5q16 0 32 -7q71 -31 130 -31q55 0 85 26t30 75q0 66 -87 105z" />
<glyph unicode="T" horiz-adv-x="514" d="M204 43v557h-148q-22 0 -36.5 14.5t-14.5 35.5q0 22 14.5 36.5t36.5 14.5h401q22 0 37 -14.5t15 -36.5q0 -21 -15 -35.5t-37 -14.5h-147v-557q0 -22 -15.5 -37.5t-37.5 -15.5t-37.5 15.5t-15.5 37.5z" />
<glyph unicode="U" horiz-adv-x="616" d="M451 233v425q0 22 15.5 37.5t37.5 15.5q21 0 37 -15.5t16 -37.5v-419q0 -112 -68.5 -180.5t-180.5 -68.5t-180.5 68.5t-68.5 180.5v419q0 22 16 37.5t38 15.5q21 0 36.5 -15.5t15.5 -37.5v-425q0 -68 37.5 -106.5t105.5 -38.5t105.5 38.5t37.5 106.5z" />
<glyph unicode="V" horiz-adv-x="555" d="M222 30l-210 612q-3 9 -3 17q0 21 15.5 36.5t36.5 15.5q16 0 30 -9.5t19 -25.5l167 -505l168 505q12 35 48 35q22 0 37.5 -16t15.5 -37q0 -8 -3 -16l-211 -612q-6 -18 -21.5 -29t-33.5 -11q-41 0 -55 40z" />
<glyph unicode="W" horiz-adv-x="804" d="M514 33l-112 453l-112 -452q-4 -19 -20.5 -31.5t-35.5 -12.5q-20 0 -35.5 12.5t-20.5 30.5l-162 613q-2 10 -2 14q0 21 15.5 36t35.5 15q18 0 32.5 -10.5t18.5 -28.5l117 -461l112 456q4 19 21 31.5t36 12.5t35 -12.5t21 -30.5l112 -459l118 463q4 18 18 28.5t32 10.5 q21 0 36.5 -15.5t15.5 -36.5q0 -5 -2 -13l-162 -613q-4 -18 -21 -30.5t-35 -12.5q-20 0 -35.5 12.5t-20.5 30.5z" />
<glyph unicode="X" horiz-adv-x="542" d="M438 13l-167 250l-167 -250q-15 -23 -43 -23q-21 0 -36.5 15.5t-15.5 36.5q0 16 9 29l192 282l-189 277q-9 14 -9 29q0 21 15.5 36.5t36.5 15.5q28 0 43 -23l164 -245l164 245q15 23 43 23q20 0 35.5 -15.5t15.5 -36.5q0 -15 -9 -29l-189 -277l193 -282q9 -13 9 -29 q0 -21 -15.5 -36.5t-36.5 -15.5q-28 0 -43 23z" />
<glyph unicode="Y" horiz-adv-x="522" d="M209 42v265l-193 326q-7 11 -7 26q0 21 15 36.5t36 15.5q31 0 45 -25l156 -274l156 274q14 25 45 25q20 0 35.5 -15.5t15.5 -36.5q0 -15 -7 -26l-193 -326v-265q0 -22 -15 -37t-37 -15t-37 15t-15 37z" />
<glyph unicode="Z" horiz-adv-x="521" d="M451 0h-375q-24 0 -41 17.5t-17 40.5q0 18 9 31l336 511h-290q-22 0 -37 14.5t-15 35.5q0 22 15 36.5t37 14.5h368q24 0 41 -17.5t17 -40.5q0 -17 -8 -30l-336 -512h296q22 0 37 -14.5t15 -35.5q0 -22 -15 -36.5t-37 -14.5z" />
<glyph unicode="[" horiz-adv-x="361" d="M247 -145h-136q-21 0 -36.5 14.5t-15.5 36.5v821q0 21 15 36.5t37 15.5h136q22 0 36.5 -14t14.5 -35q0 -22 -14.5 -35.5t-36.5 -13.5h-85v-728h85q22 0 36.5 -14t14.5 -35t-14.5 -35t-36.5 -14z" />
<glyph unicode="\" horiz-adv-x="546" d="M347 23l-244 617q-4 9 -4 20q0 19 15 35t36 16q15 0 29 -9t20 -24l244 -617q4 -9 4 -20q0 -19 -15 -35t-36 -16q-15 0 -29 9t-20 24z" />
<glyph unicode="]" horiz-adv-x="366" d="M255 -145h-136q-22 0 -36.5 14t-14.5 35t14.5 35t36.5 14h85v728h-85q-22 0 -36.5 13.5t-14.5 35.5q0 21 14.5 35t36.5 14h136q22 0 37 -15.5t15 -36.5v-821q0 -22 -15.5 -36.5t-36.5 -14.5z" />
<glyph unicode="^" horiz-adv-x="545" d="M414 349l-141 228l-142 -228q-16 -24 -42 -24q-21 0 -35 15t-14 35q0 14 8 26l181 286q14 24 44 24q29 0 43 -24l181 -285q8 -12 8 -28q0 -21 -14.5 -35t-34.5 -14q-26 0 -42 24z" />
<glyph unicode="_" horiz-adv-x="579" d="M512 -165h-446q-20 0 -34 14t-14 34t14 35t34 15h446q20 0 34.5 -15t14.5 -35t-14.5 -34t-34.5 -14z" />
<glyph unicode="`" horiz-adv-x="435" d="M242 575l-104 63q-24 14 -24 42q0 21 14.5 35t35.5 14q14 0 27 -8l105 -64q25 -16 25 -43q0 -21 -14.5 -35t-35.5 -14q-13 0 -29 10z" />
<glyph unicode="a" horiz-adv-x="496" d="M437 347v-270q0 -21 -12 -37.5t-32 -23.5q-75 -26 -162 -26q-91 0 -143 44t-52 119q0 72 52 115q52 44 143 44h103v35q0 32 -22.5 53.5t-60.5 21.5q-63 0 -108 -27q-14 -9 -28 -9q-20 0 -34.5 13t-14.5 32q0 31 25 46q70 40 173 40q80 0 126.5 -49.5t46.5 -120.5zM334 98 v119h-103q-92 0 -92 -64q0 -68 92 -68q51 0 103 13z" />
<glyph unicode="b" horiz-adv-x="514" d="M464 317v-126q0 -89 -56 -145q-54 -56 -145 -56q-80 0 -156 26q-20 7 -32 23.5t-12 37.5v582q0 22 15 37t37 15q21 0 36 -15t15 -37v-168q58 26 104 26q86 0 139 -54q55 -55 55 -146zM361 182v143q0 46 -26 71.5t-72 25.5q-53 0 -97 -36v-289q48 -12 97 -12 q47 0 72.5 25.5t25.5 71.5z" />
<glyph unicode="c" horiz-adv-x="440" d="M45 191v126q0 89 55 144q56 56 145 56q73 0 139 -32q29 -14 29 -46q0 -19 -14 -33t-35 -14q-10 0 -24 6q-54 24 -95 24q-46 0 -71.5 -25.5t-25.5 -71.5v-142q0 -46 25.5 -71.5t71.5 -25.5t98 25q9 5 22 5q19 0 33.5 -14t14.5 -34q0 -32 -30 -46q-66 -32 -138 -32 q-89 0 -145 56q-55 55 -55 145z" />
<glyph unicode="d" horiz-adv-x="509" d="M45 191v126q0 91 54 145q55 55 146 55q48 0 98 -26v168q0 22 14.5 37t36.5 15t37 -15t15 -37v-582q0 -21 -12 -37.5t-32 -23.5q-76 -26 -157 -26q-89 0 -145 56q-55 55 -55 145zM343 98v288q-42 36 -98 36q-46 0 -71.5 -25.5t-25.5 -71.5v-143q0 -46 25.5 -71.5 t71.5 -25.5q53 0 98 13z" />
<glyph unicode="e" horiz-adv-x="491" d="M381 205h-233q0 -58 20 -86q26 -34 77 -34q49 0 108 26q12 5 21 5q19 0 34 -14t15 -33q0 -32 -26 -45q-71 -34 -152 -34q-89 0 -145 56q-55 55 -55 145v126q0 89 55 144q56 56 145 56q91 0 145 -56q56 -56 56 -144v-47q0 -27 -19 -46t-46 -19zM148 300h195q0 122 -98 122 q-97 0 -97 -122z" />
<glyph unicode="f" horiz-adv-x="329" d="M63 42v520q0 62 43.5 105.5t105.5 43.5q27 0 60 -5q19 -3 31 -17t12 -33q0 -20 -14.5 -33.5t-35.5 -13.5q-4 0 -18 3t-35 3q-19 0 -32.5 -13t-13.5 -32v-63h98q22 0 36.5 -14t14.5 -35t-15 -35t-36 -14h-98v-367q0 -22 -15 -37t-36 -15q-22 0 -37 15t-15 37z" />
<glyph unicode="g" horiz-adv-x="509" d="M343 -23v39q-52 -26 -98 -26q-89 0 -145 56q-55 55 -55 145v126q0 89 55 144q56 56 145 56q81 0 157 -26q20 -7 32 -23.5t12 -37.5v-453q0 -88 -56 -144q-54 -56 -145 -56q-77 0 -145 31q-31 15 -31 46q0 20 14.5 34t35.5 14q9 0 23 -6q57 -24 103 -24t72 29t26 76z M343 121v288q-50 13 -98 13q-46 0 -71.5 -25.5t-25.5 -71.5v-143q0 -46 25.5 -71.5t71.5 -25.5q56 0 98 36z" />
<glyph unicode="h" horiz-adv-x="523" d="M361 42v283q0 46 -26 71.5t-72 25.5q-53 0 -97 -36v-344q0 -22 -15 -37t-36 -15q-22 0 -37 15t-15 37v617q0 22 15 37t37 15q21 0 36 -15t15 -37v-168q58 26 104 26q85 0 139 -54q55 -55 55 -146v-275q0 -22 -15 -37t-37 -15t-36.5 15t-14.5 37z" />
<glyph unicode="i" horiz-adv-x="242" d="M179 653q0 -24 -17 -41t-41 -17t-41 17t-17 41t17 41t41 17t41 -17t17 -41zM69 42v423q0 22 15.5 37t36.5 15q22 0 36.5 -15t14.5 -37v-423q0 -22 -14.5 -37t-36.5 -15q-21 0 -36.5 15t-15.5 37z" />
<glyph unicode="j" horiz-adv-x="260" d="M201 653q0 -24 -17 -41t-41 -17t-41 17t-17 41t17 41t41 17t41 -17t17 -41zM91 -15v480q0 22 15 37t37 15q21 0 36 -15t15 -37v-480q0 -72 -35.5 -125t-98.5 -74q-18 -6 -33 -6q-20 0 -34.5 13.5t-14.5 35.5q0 18 11 31t29 17q35 8 54 37t19 71z" />
<glyph unicode="k" horiz-adv-x="459" d="M351 8l-180 207v-173q0 -22 -15 -37t-36 -15q-22 0 -37 15t-15 37v617q0 22 15 37t37 15q21 0 36 -15t15 -37v-321l178 165q14 14 36 14q20 0 35 -15t15 -37t-17 -37l-171 -152l182 -200q12 -12 12 -34q0 -20 -14.5 -36t-35.5 -16q-25 0 -40 18z" />
<glyph unicode="l" horiz-adv-x="239" d="M68 42v617q0 22 15 37t37 15q21 0 36 -15t15 -37v-617q0 -22 -15 -37t-36 -15q-22 0 -37 15t-15 37z" />
<glyph unicode="m" horiz-adv-x="775" d="M613 42v294q0 35 -25.5 60.5t-60.5 25.5q-45 0 -86 -26v-354q0 -22 -15 -37t-37 -15q-21 0 -36 15t-15 37v307q0 73 -82 73q-40 0 -90 -14v-366q0 -22 -15 -37t-36 -15q-22 0 -37 15t-15 37v385q0 44 42 61q75 29 161 29q72 0 121 -41q62 41 140 41q81 0 135 -54t54 -135 v-286q0 -22 -15 -37t-37 -15t-36.5 15t-14.5 37z" />
<glyph unicode="n" horiz-adv-x="523" d="M361 42v283q0 46 -26 71.5t-72 25.5q-47 0 -97 -13v-367q0 -22 -15 -37t-36 -15q-22 0 -37 15t-15 37v388q0 46 44 61q75 26 156 26q91 0 145 -56q56 -56 56 -144v-275q0 -22 -15 -37t-37 -15t-36.5 15t-14.5 37z" />
<glyph unicode="o" horiz-adv-x="510" d="M465 307v-107q0 -94 -58 -152t-152 -58t-152 58t-58 152v107q0 94 58 152t152 58t152 -58t58 -152zM362 191v124q0 48 -29 77.5t-78 29.5q-51 0 -79 -28t-28 -79v-124q0 -50 28 -78t79 -28t79 28t28 78z" />
<glyph unicode="p" horiz-adv-x="514" d="M63 -171v601q0 21 12.5 38t31.5 23q81 26 156 26q91 0 145 -56q56 -56 56 -144v-126q0 -92 -55 -147q-53 -54 -139 -54q-46 0 -104 26v-187q0 -22 -15 -37t-36 -15q-22 0 -37 15t-15 37zM361 182v143q0 46 -26 71.5t-72 25.5q-49 0 -97 -12v-290q43 -35 97 -35 q47 0 72.5 25.5t25.5 71.5z" />
<glyph unicode="q" horiz-adv-x="509" d="M402 491q19 -6 31.5 -23t12.5 -38v-601q0 -22 -15 -37t-37 -15q-21 0 -36 15t-15 37v187q-58 -26 -104 -26q-86 0 -139 54q-55 55 -55 147v126q0 88 56 144q54 56 145 56q75 0 156 -26zM246 85q54 0 97 35v290q-48 12 -97 12q-46 0 -72 -25.5t-26 -71.5v-143 q0 -46 25.5 -71.5t72.5 -25.5z" />
<glyph unicode="r" horiz-adv-x="342" d="M63 42v326q0 64 42.5 106.5t106.5 42.5q35 0 75 -8q18 -4 29.5 -17.5t11.5 -31.5q0 -20 -14 -34t-35 -14q-9 0 -17 2q-32 8 -50 8q-19 0 -32.5 -13.5t-13.5 -32.5v-334q0 -22 -15 -37t-36 -15q-22 0 -37 15t-15 37z" />
<glyph unicode="s" horiz-adv-x="431" d="M220 199l-82 30q-96 36 -96 137q0 66 49 108.5t124 42.5q81 0 136 -25q33 -13 33 -47q0 -20 -14 -34t-34 -14q-12 0 -24 5q-42 20 -99 20q-31 0 -49.5 -14.5t-18.5 -39.5q0 -35 41 -49l98 -32q106 -35 106 -140q0 -67 -49.5 -112t-128.5 -45q-83 0 -144 28q-31 15 -31 46 q0 20 14.5 35t35.5 15q9 0 23 -6q44 -23 104 -23q73 0 73 52q0 17 -10 29.5t-22 18.5t-35 14z" />
<glyph unicode="t" horiz-adv-x="342" d="M63 146v513q0 22 15 37t37 15q21 0 36 -15t15 -37v-152h97q22 0 37 -14t15 -35q0 -22 -14.5 -36t-37.5 -14h-97v-261q0 -28 13 -45t33 -17q16 0 30.5 4t22.5 4q20 0 35 -13.5t15 -34.5q0 -18 -12.5 -31.5t-31.5 -17.5q-30 -6 -59 -6q-63 0 -106 44t-43 112z" />
<glyph unicode="u" horiz-adv-x="523" d="M357 98v367q0 22 14.5 37t36.5 15t37 -15t15 -37v-388q0 -21 -12 -37.5t-32 -23.5q-75 -26 -157 -26q-93 0 -147 54q-53 53 -53 147v274q0 22 15 37t37 15q21 0 36 -15t15 -37v-282q0 -46 25.5 -71.5t71.5 -25.5q51 0 98 12z" />
<glyph unicode="v" horiz-adv-x="439" d="M169 29l-152 419q-3 9 -3 17q0 20 15 36t36 16q37 0 49 -34l109 -327l101 326q12 35 48 35q21 0 37 -15t16 -37q0 -9 -3 -16l-142 -418q-14 -41 -56 -41q-18 0 -34 12.5t-21 26.5z" />
<glyph unicode="w" horiz-adv-x="705" d="M436 32l-83 287l-83 -286q-5 -19 -21 -31t-35 -12q-42 0 -56 41l-133 419q-2 5 -2 15q0 21 14.5 36.5t36.5 15.5q17 0 31.5 -10t18.5 -26l89 -304l84 297q5 19 21 31t35 12q18 0 34.5 -13t20.5 -28l84 -299l89 304q4 16 18.5 26t31.5 10q21 0 36 -15t15 -37q0 -10 -2 -15 l-133 -418q-6 -19 -21 -30.5t-34 -11.5t-35 12t-21 30z" />
<glyph unicode="x" horiz-adv-x="447" d="M329 12l-106 156l-106 -156q-16 -22 -42 -22q-21 0 -36.5 15.5t-15.5 36.5q0 16 9 29l131 185l-128 180q-9 14 -9 29q0 21 15.5 36.5t36.5 15.5q26 0 42 -22l103 -151l103 151q15 22 43 22q21 0 36 -15t15 -37q0 -15 -9 -29l-128 -180l131 -185q10 -13 10 -29 q0 -21 -15.5 -36.5t-37.5 -15.5q-27 0 -42 22z" />
<glyph unicode="y" horiz-adv-x="457" d="M163 -62l25 82l-165 427q-4 12 -4 19q0 20 16 35.5t37 15.5q35 0 47 -33l120 -329l103 327q12 35 48 35q21 0 37 -15t16 -37q0 -9 -3 -16l-179 -535q-21 -63 -71.5 -100t-120.5 -37q-21 0 -36 13.5t-15 35.5q0 19 14.5 33t34.5 15q77 3 96 64z" />
<glyph unicode="z" horiz-adv-x="455" d="M377 0h-292q-24 0 -41 17t-17 41q0 19 12 35l246 316h-204q-22 0 -36.5 14t-14.5 35t14.5 35t36.5 14h285q24 0 41 -17t17 -41q0 -20 -10 -33l-248 -318h210q22 0 37 -13.5t15 -34.5q0 -22 -14.5 -36t-36.5 -14z" />
<glyph unicode="{" horiz-adv-x="418" d="M155 16v177q0 28 -18.5 48.5t-45.5 23.5q-20 2 -33 17t-13 35q0 19 13 34t33 17q27 3 45.5 23.5t18.5 48.5v177q0 67 47 114.5t114 47.5q23 0 37.5 -13.5t14.5 -35.5t-14.5 -35.5t-37.5 -13.5q-24 0 -41 -17t-17 -41v-183q0 -76 -60 -123q60 -47 60 -124v-182 q0 -24 17 -41t41 -17q23 0 37.5 -13.5t14.5 -35.5q0 -21 -14.5 -35t-37.5 -14q-67 0 -114 47t-47 114z" />
<glyph unicode="|" horiz-adv-x="319" d="M108 -171v898q0 22 15 37t37 15q21 0 36 -15t15 -37v-898q0 -22 -15 -37t-36 -15q-22 0 -37 15t-15 37z" />
<glyph unicode="}" horiz-adv-x="418" d="M160 11v182q0 77 60 124q-60 47 -60 123v183q0 24 -17 41t-41 17q-23 0 -37.5 13.5t-14.5 35.5t14.5 35.5t37.5 13.5q67 0 114 -47.5t47 -114.5v-177q0 -28 18.5 -48.5t45.5 -23.5q20 -2 33 -17t13 -34q0 -20 -13 -35t-33 -17q-27 -3 -45.5 -23.5t-18.5 -48.5v-177 q0 -67 -47 -114t-114 -47q-23 0 -37.5 14t-14.5 35q0 22 14.5 35.5t37.5 13.5q24 0 41 17t17 41z" />
<glyph unicode="~" horiz-adv-x="545" d="M451 202q-37 -21 -83 -21q-53 0 -122 40q-46 25 -70 25q-37 0 -58 -31q-16 -25 -44 -25q-21 0 -35 14.5t-14 35.5q0 45 68 81q39 21 83 21q55 0 122 -40q43 -25 70 -25q35 0 57 31q18 25 44 25q21 0 35.5 -14.5t14.5 -35.5q0 -45 -68 -81z" />
<glyph unicode="&#xa1;" horiz-adv-x="363" d="M182 375q-27 0 -46 19t-19 45q0 27 19 46t46 19q26 0 45 -19t19 -46q0 -26 -19 -45t-45 -19zM130 -171v402q0 22 15 37t37 15q21 0 36 -15t15 -37v-402q0 -22 -15 -37t-36 -15q-22 0 -37 15t-15 37z" />
<glyph unicode="&#xa2;" d="M330 120v-78q0 -22 -15 -37t-36 -15q-22 0 -37 15t-15 37v82q-44 12 -78 44q-51 51 -51 134v97q0 83 51 134q31 31 78 45v81q0 22 15 37t37 15q21 0 36 -15t15 -37v-78q39 -6 81 -25q29 -14 29 -46q0 -20 -14.5 -34t-36.5 -14q-10 0 -22 5q-48 22 -84 22q-39 0 -60.5 -21 t-21.5 -61v-113q0 -40 21.5 -61t60.5 -21q43 0 83 21q12 7 23 7q21 0 36 -13.5t15 -34.5q0 -32 -29 -46q-40 -20 -81 -26z" />
<glyph unicode="&#xa3;" d="M425 0h-330q-20 0 -36 15.5t-16 36.5t15 36q75 75 75 179v87h-39q-22 0 -36.5 14t-14.5 35t14.5 35t36.5 14h39v69q0 84 53 137q51 53 137 53q59 0 112 -33q24 -16 24 -44q0 -20 -14.5 -34t-35.5 -14q-16 0 -30 11q-25 19 -56 19q-41 0 -64 -26t-23 -69v-69h172 q22 0 36.5 -14t14.5 -35t-14.5 -35t-36.5 -14h-172v-87q0 -101 -49 -169h238q22 0 36.5 -14t14.5 -35q0 -22 -14.5 -35.5t-36.5 -13.5z" />
<glyph unicode="&#xa4;" d="M427 110l-58 58q-50 -31 -110 -31q-59 0 -109 31l-59 -59q-15 -15 -36 -15t-36.5 14.5t-15.5 36.5t15 37l58 59q-30 51 -30 110q0 58 30 109l-58 59q-15 15 -15 36t14.5 36.5t36.5 15.5t37 -15l59 -59q50 31 109 31q60 0 110 -31l59 59q15 15 36 15t36.5 -15t15.5 -37 q0 -21 -15 -36l-59 -59q31 -50 31 -109q0 -60 -31 -110l58 -58q15 -15 15 -37q0 -20 -15 -35.5t-36 -15.5q-22 0 -37 15zM259 235q45 0 78 33t33 83q0 48 -32.5 81.5t-78.5 33.5q-45 0 -77.5 -33t-32.5 -82q0 -48 32 -82t78 -34z" />
<glyph unicode="&#xa5;" d="M415 113h-104v-71q0 -22 -15 -37t-37 -15t-36.5 15t-14.5 37v71h-105q-22 0 -36.5 14t-14.5 35t14.5 35t36.5 14h105v89h-105q-21 0 -36 14t-15 35t14.5 35t36.5 14h55l-144 234q-7 13 -7 27q0 21 15.5 36.5t36.5 15.5q28 0 44 -25l156 -268l156 268q16 25 44 25 q21 0 37 -15.5t16 -36.5q0 -14 -8 -27l-144 -234h55q22 0 36.5 -14t14.5 -35q0 -22 -14.5 -35.5t-36.5 -13.5h-104v-89h104q22 0 36.5 -14t14.5 -35t-14.5 -35t-36.5 -14z" />
<glyph unicode="&#xa6;" horiz-adv-x="319" d="M108 -171v307q0 21 15 36t37 15q21 0 36 -15t15 -36v-307q0 -22 -15 -37t-36 -15q-22 0 -37 15t-15 37zM108 420v307q0 22 15 37t37 15q21 0 36 -15t15 -37v-307q0 -22 -15 -37t-36 -15q-22 0 -37 15t-15 37z" />
<glyph unicode="&#xa7;" d="M294 94l-123 57q-47 22 -74 62.5t-27 88.5q0 78 49 136q-49 43 -49 112q0 70 59 118q54 43 127 43q75 0 144 -27q33 -13 33 -47q0 -21 -13.5 -34.5t-35.5 -13.5q-11 0 -21 5q-48 22 -107 22q-33 0 -58 -21t-25 -45q0 -38 42 -57l123 -57q48 -23 76 -65.5t28 -94.5 q0 -77 -49 -133q49 -43 49 -115q0 -69 -54.5 -118t-131.5 -49q-79 0 -155 31q-31 13 -31 46q0 19 14.5 33.5t35.5 14.5q10 0 22 -5q60 -25 114 -25q33 0 58 23t25 49q0 45 -45 66zM294 350l-87 40q-34 -33 -34 -88q0 -46 42 -65l15 -7l40 -19q25 -12 39 -18q30 31 30 83 q0 53 -45 74z" />
<glyph unicode="&#xa8;" horiz-adv-x="435" d="M181 661q0 -24 -17 -41t-41 -17t-41 17t-17 41t17 41t41 17t41 -17t17 -41zM311 603q-25 0 -42 17t-17 41t17 41t42 17q24 0 41 -17t17 -41t-17 -41t-41 -17z" />
<glyph unicode="&#xa9;" horiz-adv-x="829" d="M284 300v101q0 64 39 103q40 40 104 40q45 0 83 -25q19 -11 19 -33q0 -16 -11.5 -25.5t-27.5 -9.5q-10 0 -20 7q-22 14 -43 14q-66 0 -66 -65v-113q0 -65 66 -65q20 0 42 14q12 7 21 7q16 0 27.5 -10.5t11.5 -25.5q0 -22 -18 -32q-38 -25 -84 -25q-64 0 -104 40 q-39 39 -39 103zM414 -10q-149 0 -254.5 106t-105.5 255t106 254.5t254 105.5q149 0 255 -105.5t106 -254.5t-106 -255t-255 -106zM414 63q117 0 200 84.5t83 203.5t-83 203t-200 84t-199.5 -84t-82.5 -203t82.5 -203.5t199.5 -84.5z" />
<glyph unicode="&#xaa;" horiz-adv-x="365" d="M300 606v-168q0 -14 -8.5 -26t-22.5 -17q-43 -15 -91 -15q-57 0 -89.5 28t-32.5 78q0 49 32 73.5t90 24.5h44v22q0 12 -11.5 22t-27.5 11q-31 0 -61 -12q-5 -2 -13 -2q-14 0 -24.5 10.5t-10.5 25.5q0 25 26 35q42 15 83 15q44 0 80.5 -29.5t36.5 -75.5zM222 452v64h-44 q-16 0 -25.5 -3t-13 -8.5t-4.5 -9.5t-1 -10q0 -7 1 -11.5t4.5 -11.5t13.5 -10.5t25 -3.5q25 0 44 4z" />
<glyph unicode="&#xab;" horiz-adv-x="532" d="M165 76l-98 137q-13 19 -13 37q0 21 12 38l99 136q16 22 42 22q21 0 36 -15t15 -37q0 -16 -9 -30l-82 -114l82 -113q9 -13 9 -30q0 -21 -15 -36.5t-36 -15.5q-27 0 -42 21zM384 76l-98 137q-12 17 -12 37q0 21 12 38l98 136q16 22 42 22q22 0 37 -15.5t15 -36.5 q0 -17 -10 -30l-81 -114l81 -113q10 -13 10 -31q0 -21 -15.5 -36t-36.5 -15q-27 0 -42 21z" />
<glyph unicode="&#xac;" d="M393 71v135h-318q-22 0 -36.5 14t-14.5 35t14.5 35t36.5 14h356q26 0 45.5 -19t19.5 -45v-169q0 -21 -14.5 -36t-36.5 -15t-37 15t-15 36z" />
<glyph unicode="&#xad;" horiz-adv-x="438" d="M335 249h-233q-20 0 -34 14.5t-14 34.5t13.5 34.5t34.5 14.5h233q20 0 34.5 -14.5t14.5 -34.5t-14.5 -34.5t-34.5 -14.5z" />
<glyph unicode="&#xae;" horiz-adv-x="829" d="M482 176l-73 133h-33v-114q0 -16 -11.5 -27.5t-27.5 -11.5t-27 11.5t-11 27.5v303q0 19 13 32t32 13h89q51 0 86 -33t35 -85q0 -75 -65 -105l60 -106q5 -8 5 -19q0 -15 -11 -27t-27 -12q-23 0 -34 20zM376 387h57q18 0 28 6t12.5 13.5t2.5 18.5q0 40 -43 40h-57v-78z M414 -10q-149 0 -254.5 106t-105.5 255t106 254.5t254 105.5q149 0 255 -105.5t106 -254.5t-106 -255t-255 -106zM414 63q117 0 200 84.5t83 203.5t-83 203t-200 84t-199.5 -84t-82.5 -203t82.5 -203.5t199.5 -84.5z" />
<glyph unicode="&#xaf;" horiz-adv-x="419" d="M290 622h-161q-20 0 -34 14t-14 34t13.5 34.5t34.5 14.5h161q20 0 34.5 -14.5t14.5 -34.5t-14.5 -34t-34.5 -14z" />
<glyph unicode="&#xb0;" horiz-adv-x="398" d="M199 403q-64 0 -109 45t-45 109t45 109t109 45t109 -45t45 -109t-45 -109t-109 -45zM199 489q27 0 46.5 20t19.5 48q0 29 -19.5 48.5t-46.5 19.5q-28 0 -47 -19.5t-19 -48.5t19.5 -48.5t46.5 -19.5z" />
<glyph unicode="&#xb1;" d="M458 0h-397q-20 0 -34 14.5t-14 34.5t13.5 34.5t34.5 14.5h397q20 0 34.5 -14.5t14.5 -34.5t-14.5 -34.5t-34.5 -14.5zM457 308h-146v-123q0 -22 -14.5 -37t-36.5 -15q-21 0 -36.5 15t-15.5 37v123h-145q-21 0 -35.5 14t-14.5 35t14.5 35t35.5 14h145v122q0 22 15.5 37 t36.5 15q22 0 36.5 -15t14.5 -37v-122h146q21 0 35.5 -14t14.5 -35t-14.5 -35t-35.5 -14z" />
<glyph unicode="&#xb2;" horiz-adv-x="372" d="M274 291h-171q-19 0 -32.5 13t-13.5 32q0 16 10 29l137 167q25 32 25 55q0 21 -12.5 34t-36.5 13q-29 0 -57 -14q-10 -5 -20 -5q-16 0 -28 11t-12 28q0 25 23 36q46 21 98 21q57 0 93 -34.5t36 -89.5q0 -51 -46 -107l-90 -109h97q18 0 30 -11.5t12 -28.5t-12 -28.5 t-30 -11.5z" />
<glyph unicode="&#xb3;" horiz-adv-x="373" d="M174 466h-11q-18 0 -30 11t-12 28q0 18 12 28.5t30 10.5h7q22 0 38 12t16 31q0 21 -12.5 34t-36.5 13q-29 0 -59 -15q-8 -4 -17 -4q-17 0 -29 10.5t-12 28.5q0 25 23 36q45 21 98 21q57 0 93 -34.5t36 -89.5q0 -47 -38 -78q49 -36 49 -92q0 -58 -41 -96q-40 -35 -99 -35 q-55 0 -101 21q-24 11 -24 36q0 17 11.5 28.5t29.5 11.5q9 0 19 -5q32 -15 65 -15q18 0 37 13t19 41q0 19 -18.5 34t-42.5 15z" />
<glyph unicode="&#xb4;" horiz-adv-x="435" d="M297 638l-104 -63q-16 -10 -29 -10q-21 0 -35.5 14t-14.5 35q0 27 25 43l105 64q13 8 27 8q21 0 35.5 -14t14.5 -35q0 -28 -24 -42z" />
<glyph unicode="&#xb5;" horiz-adv-x="556" d="M381 97v368q0 22 14.5 37t36.5 15t37 -15t15 -37v-388q0 -20 -12.5 -37.5t-31.5 -23.5q-80 -26 -157 -26q-59 0 -97 30v-191q0 -22 -15 -37t-36 -15q-22 0 -37 15t-15 37v636q0 22 15 37t37 15q21 0 36 -15t15 -37v-283q0 -45 25.5 -71t71.5 -26q53 0 98 12z" />
<glyph unicode="&#xb6;" horiz-adv-x="545" d="M421 -171v774h-98v-774q0 -22 -15 -37t-36 -15q-22 0 -37 15t-15 37v472q-83 0 -141.5 58t-58.5 142q0 80 57 140t143 60h239q26 0 45.5 -18.5t19.5 -45.5v-808q0 -22 -15 -37t-37 -15q-21 0 -36 15t-15 37z" />
<glyph unicode="&#xb7;" horiz-adv-x="291" d="M146 231q-27 0 -46 19t-19 46q0 26 19 45t46 19q26 0 45 -19t19 -45q0 -27 -19 -46t-45 -19z" />
<glyph unicode="&#xb8;" horiz-adv-x="435" d="M269 -1l-6 -21q50 -30 50 -74q0 -72 -97 -113q-30 -14 -52 -14q-17 0 -30 11.5t-13 30.5q0 32 33 41q1 0 13 2.5t19 5.5l17 6q10 3 15 8.5t5 11.5q0 9 -6.5 13.5t-25.5 11.5q-23 8 -23 36q0 11 3 23l11 41q9 34 44 34q18 0 31.5 -11t13.5 -29q0 -4 -2 -14z" />
<glyph unicode="&#xb9;" horiz-adv-x="365" d="M162 328v277l-31 -17q-12 -7 -23 -7q-16 0 -28 11t-12 28q0 23 21 35l89 50q12 6 22 6q19 0 32.5 -13.5t13.5 -32.5v-337q0 -17 -12.5 -29.5t-29.5 -12.5t-29.5 12.5t-12.5 29.5z" />
<glyph unicode="&#xba;" horiz-adv-x="367" d="M311 583v-76q0 -56 -36 -91.5t-92 -35.5t-91.5 35.5t-35.5 91.5v76q0 56 35.5 92t91.5 36t92 -36t36 -92zM233 501v88q0 50 -50 50q-49 0 -49 -50v-88q0 -49 49 -49q50 0 50 49z" />
<glyph unicode="&#xbb;" horiz-adv-x="532" d="M465 213l-98 -137q-15 -21 -42 -21q-21 0 -36 15.5t-15 36.5q0 17 9 30l82 113l-82 114q-9 14 -9 30q0 22 15 37t36 15q26 0 42 -22l99 -136q12 -17 12 -38q0 -18 -13 -37zM246 213l-98 -137q-15 -21 -42 -21q-21 0 -36.5 15t-15.5 36q0 18 10 31l81 113l-81 114 q-10 13 -10 30q0 21 15 36.5t37 15.5q26 0 42 -22l98 -136q12 -17 12 -38q0 -20 -12 -37z" />
<glyph unicode="&#xbc;" horiz-adv-x="846" d="M130 328v277l-31 -17q-12 -7 -23 -7q-16 0 -28 11t-12 28q0 23 21 35l89 50q12 6 22 6q19 0 32.5 -13.5t13.5 -32.5v-337q0 -17 -12.5 -29.5t-29.5 -12.5t-29.5 12.5t-12.5 29.5zM144 51l446 643q11 17 32 17q15 0 26.5 -11t11.5 -27q0 -13 -7 -23l-445 -643 q-12 -17 -32 -17q-15 0 -27 11.5t-12 27.5q0 12 7 22zM760 80h-21v-48q0 -17 -12 -29.5t-30 -12.5q-17 0 -29.5 12.5t-12.5 29.5v48h-126q-19 0 -33 12t-14 30q0 11 3 18l97 248q11 27 39 27q17 0 28.5 -11.5t11.5 -29.5q0 -8 -3 -16l-77 -198h74v48q0 17 12.5 29.5 t29.5 12.5q18 0 30 -12.5t12 -29.5v-48h21q17 0 29 -11.5t12 -28.5t-12 -28.5t-29 -11.5z" />
<glyph unicode="&#xbd;" horiz-adv-x="873" d="M135 51l446 643q11 17 32 17q15 0 26.5 -11t11.5 -27q0 -13 -7 -23l-445 -643q-12 -17 -32 -17q-15 0 -27 11.5t-12 27.5q0 12 7 22zM130 328v277l-31 -17q-12 -7 -23 -7q-16 0 -28 11t-12 28q0 23 21 35l89 50q12 6 22 6q19 0 32.5 -13.5t13.5 -32.5v-337 q0 -17 -12.5 -29.5t-29.5 -12.5t-29.5 12.5t-12.5 29.5zM763 0h-171q-19 0 -32.5 13t-13.5 32q0 16 10 29l137 162q25 30 25 51t-12.5 34t-36.5 13q-29 0 -57 -14q-10 -5 -20 -5q-16 0 -28 11t-12 28q0 25 23 36q45 21 98 21q57 0 93 -34.5t36 -89.5q0 -51 -44 -103 l-90 -104h95q18 0 30 -11.5t12 -28.5t-12 -28.5t-30 -11.5z" />
<glyph unicode="&#xbe;" horiz-adv-x="900" d="M816 80h-21v-48q0 -17 -12 -29.5t-30 -12.5q-17 0 -29.5 12.5t-12.5 29.5v48h-126q-19 0 -33 12t-14 30q0 11 3 18l97 248q11 27 39 27q17 0 28.5 -11.5t11.5 -29.5q0 -8 -3 -16l-77 -198h74v48q0 17 12.5 29.5t29.5 12.5q18 0 30 -12.5t12 -29.5v-48h21q17 0 29 -11.5 t12 -28.5t-12 -28.5t-29 -11.5zM199 51l446 643q11 17 32 17q15 0 26.5 -11t11.5 -27q0 -13 -7 -23l-445 -643q-12 -17 -32 -17q-15 0 -27 11.5t-12 27.5q0 12 7 22zM164 466h-11q-18 0 -30 11t-12 28q0 18 12 28.5t30 10.5h7q22 0 38 12t16 31q0 21 -12.5 34t-36.5 13 q-29 0 -59 -15q-8 -4 -17 -4q-17 0 -29 10.5t-12 28.5q0 25 23 36q45 21 98 21q57 0 93 -34.5t36 -89.5q0 -47 -38 -78q49 -36 49 -92q0 -58 -41 -96q-40 -35 -99 -35q-55 0 -101 21q-24 11 -24 36q0 17 11.5 28.5t29.5 11.5q9 0 19 -5q32 -15 65 -15q18 0 37 13t19 41 q0 19 -18.5 34t-42.5 15z" />
<glyph unicode="&#xbf;" horiz-adv-x="480" d="M252 375q-27 0 -46 19t-19 46t19 46t46 19q26 0 45 -19t19 -46t-19 -46t-45 -19zM245 87l-59 -42q-38 -27 -38 -78q0 -43 30 -69t72 -26q52 0 101 26q12 7 26 7q20 0 34.5 -14t14.5 -35q0 -31 -30 -45q-69 -34 -151 -34q-83 0 -141.5 57t-58.5 137q0 93 74 147l64 46 q17 12 17 35v33q0 21 15 36t37 15q21 0 36 -15t15 -36v-27q0 -34 -15.5 -66.5t-42.5 -51.5z" />
<glyph unicode="&#xc0;" horiz-adv-x="584" d="M469 24l-54 152h-246l-55 -152q-13 -34 -49 -34q-21 0 -36 15t-15 37q0 8 3 17l220 614q6 16 21.5 27t33.5 11t33.5 -11t21.5 -28l220 -613q3 -7 3 -17q0 -21 -15 -36.5t-37 -15.5q-36 0 -49 34zM379 277l-87 242l-87 -242h174zM300 762l-104 63q-24 14 -24 42 q0 21 14.5 35t35.5 14q14 0 27 -8l105 -64q25 -16 25 -43q0 -21 -14.5 -35t-35.5 -14q-13 0 -29 10z" />
<glyph unicode="&#xc1;" horiz-adv-x="584" d="M469 24l-54 152h-246l-55 -152q-13 -34 -49 -34q-21 0 -36 15t-15 37q0 8 3 17l220 614q6 16 21.5 27t33.5 11t33.5 -11t21.5 -28l220 -613q3 -7 3 -17q0 -21 -15 -36.5t-37 -15.5q-36 0 -49 34zM379 277l-87 242l-87 -242h174zM389 825l-104 -63q-16 -10 -29 -10 q-21 0 -35.5 14t-14.5 35q0 27 25 43l105 64q13 8 27 8q21 0 35.5 -14t14.5 -35q0 -28 -24 -42z" />
<glyph unicode="&#xc2;" horiz-adv-x="584" d="M469 24l-54 152h-246l-55 -152q-13 -34 -49 -34q-21 0 -36 15t-15 37q0 8 3 17l220 614q6 16 21.5 27t33.5 11t33.5 -11t21.5 -28l220 -613q3 -7 3 -17q0 -21 -15 -36.5t-37 -15.5q-36 0 -49 34zM379 277l-87 242l-87 -242h174zM361 762l-69 49l-70 -49q-15 -10 -30 -10 q-20 0 -34.5 14t-14.5 35q0 26 22 41l90 62q17 12 37 12q18 0 37 -12l89 -62q22 -15 22 -41q0 -21 -14.5 -35t-34.5 -14q-15 0 -30 10z" />
<glyph unicode="&#xc3;" horiz-adv-x="584" d="M469 24l-54 152h-246l-55 -152q-13 -34 -49 -34q-21 0 -36 15t-15 37q0 8 3 17l220 614q6 16 21.5 27t33.5 11t33.5 -11t21.5 -28l220 -613q3 -7 3 -17q0 -21 -15 -36.5t-37 -15.5q-36 0 -49 34zM379 277l-87 242l-87 -242h174zM439 840q-21 -26 -45 -37q-29 -13 -56 -13 q-41 0 -75 26q-7 6 -17 6q-15 0 -24 -12q-17 -20 -39 -20q-19 0 -33 15t-14 33q0 16 9 28q20 26 45 38q24 12 56 12q38 0 75 -28q7 -6 17 -6q13 0 25 12q18 22 38 22t33.5 -14.5t13.5 -33.5q0 -16 -9 -28z" />
<glyph unicode="&#xc4;" horiz-adv-x="584" d="M469 24l-54 152h-246l-55 -152q-13 -34 -49 -34q-21 0 -36 15t-15 37q0 8 3 17l220 614q6 16 21.5 27t33.5 11t33.5 -11t21.5 -28l220 -613q3 -7 3 -17q0 -21 -15 -36.5t-37 -15.5q-36 0 -49 34zM379 277l-87 242l-87 -242h174zM256 848q0 -24 -17 -41t-41 -17t-41 17 t-17 41t17 41t41 17t41 -17t17 -41zM386 790q-25 0 -42 17t-17 41t17 41t42 17q24 0 41 -17t17 -41t-17 -41t-41 -17z" />
<glyph unicode="&#xc5;" horiz-adv-x="584" d="M469 24l-54 152h-246l-55 -152q-13 -34 -49 -34q-21 0 -36 15t-15 37q0 8 3 17l220 614q6 16 21.5 27t33.5 11t33.5 -11t21.5 -28l220 -613q3 -7 3 -17q0 -21 -15 -36.5t-37 -15.5q-36 0 -49 34zM379 277l-87 242l-87 -242h174zM408 865q0 -48 -34 -82t-83 -34 q-48 0 -82 34t-34 82t34 82t82 34q49 0 83 -34t34 -82zM291 824q17 0 28.5 11.5t11.5 29.5t-11.5 29.5t-28.5 11.5q-16 0 -27.5 -12t-11.5 -29t11.5 -29t27.5 -12z" />
<glyph unicode="&#xc6;" horiz-adv-x="848" d="M765 0h-299q-25 0 -44.5 19t-19.5 45v112h-188l-105 -162q-16 -24 -43 -24q-20 0 -36 16t-16 37q0 15 8 27l389 601q20 30 55 30h291q22 0 37 -15t15 -37q0 -21 -15 -35t-37 -14h-249v-186h236q22 0 37 -14.5t15 -36.5q0 -21 -15 -35.5t-37 -14.5h-236v-212h257 q21 0 36 -14.5t15 -35.5q0 -22 -15 -36.5t-36 -14.5zM402 277v189l-123 -189h123z" />
<glyph unicode="&#xc7;" horiz-adv-x="513" d="M50 249v203q0 116 71 187.5t187 71.5q81 0 154 -47q24 -16 24 -43q0 -20 -15 -34.5t-37 -14.5q-13 0 -27 8q-53 33 -99 33q-72 0 -112 -43.5t-40 -117.5v-203q0 -74 40 -117.5t112 -43.5q44 0 98 34q14 9 29 9q21 0 36 -14.5t15 -35.5q0 -28 -24 -44q-68 -44 -145 -47 l-3 -12q50 -30 50 -74q0 -72 -97 -113q-30 -14 -52 -14q-17 0 -30 11.5t-13 30.5q0 32 33 41q1 0 13 2.5t19 5.5l17 6q10 3 15 8.5t5 11.5q0 9 -6.5 13.5t-25.5 11.5q-23 8 -23 36q0 11 3 23l6 22q-82 23 -130 89t-48 160z" />
<glyph unicode="&#xc8;" horiz-adv-x="514" d="M430 0h-297q-26 0 -45.5 18.5t-19.5 45.5v573q0 26 19 45t46 19h290q22 0 37 -15t15 -37q0 -21 -15 -35t-37 -14h-249v-186h236q22 0 37 -14.5t15 -36.5q0 -21 -15 -35.5t-37 -14.5h-236v-212h256q21 0 36.5 -14.5t15.5 -35.5t-15.5 -36t-36.5 -15zM281 762l-104 63 q-24 14 -24 42q0 21 14.5 35t35.5 14q14 0 27 -8l105 -64q25 -16 25 -43q0 -21 -14.5 -35t-35.5 -14q-13 0 -29 10z" />
<glyph unicode="&#xc9;" horiz-adv-x="514" d="M430 0h-297q-26 0 -45.5 18.5t-19.5 45.5v573q0 26 19 45t46 19h290q22 0 37 -15t15 -37q0 -21 -15 -35t-37 -14h-249v-186h236q22 0 37 -14.5t15 -36.5q0 -21 -15 -35.5t-37 -14.5h-236v-212h256q21 0 36.5 -14.5t15.5 -35.5t-15.5 -36t-36.5 -15zM370 825l-104 -63 q-16 -10 -29 -10q-21 0 -35.5 14t-14.5 35q0 27 25 43l105 64q13 8 27 8q21 0 35.5 -14t14.5 -35q0 -28 -24 -42z" />
<glyph unicode="&#xca;" horiz-adv-x="514" d="M430 0h-297q-26 0 -45.5 18.5t-19.5 45.5v573q0 26 19 45t46 19h290q22 0 37 -15t15 -37q0 -21 -15 -35t-37 -14h-249v-186h236q22 0 37 -14.5t15 -36.5q0 -21 -15 -35.5t-37 -14.5h-236v-212h256q21 0 36.5 -14.5t15.5 -35.5t-15.5 -36t-36.5 -15zM342 762l-69 49 l-70 -49q-15 -10 -30 -10q-20 0 -34.5 14t-14.5 35q0 26 22 41l90 62q17 12 37 12q18 0 37 -12l89 -62q22 -15 22 -41q0 -21 -14.5 -35t-34.5 -14q-15 0 -30 10z" />
<glyph unicode="&#xcb;" horiz-adv-x="514" d="M430 0h-297q-26 0 -45.5 18.5t-19.5 45.5v573q0 26 19 45t46 19h290q22 0 37 -15t15 -37q0 -21 -15 -35t-37 -14h-249v-186h236q22 0 37 -14.5t15 -36.5q0 -21 -15 -35.5t-37 -14.5h-236v-212h256q21 0 36.5 -14.5t15.5 -35.5t-15.5 -36t-36.5 -15zM237 848 q0 -24 -17 -41t-41 -17t-41 17t-17 41t17 41t41 17t41 -17t17 -41zM367 790q-25 0 -42 17t-17 41t17 41t42 17q24 0 41 -17t17 -41t-17 -41t-41 -17z" />
<glyph unicode="&#xcc;" horiz-adv-x="242" d="M68 43v615q0 22 15.5 37.5t37.5 15.5q21 0 37 -15.5t16 -37.5v-615q0 -22 -16 -37.5t-37 -15.5q-22 0 -37.5 15.5t-15.5 37.5zM134 762l-104 63q-24 14 -24 42q0 21 14.5 35t35.5 14q14 0 27 -8l105 -64q25 -16 25 -43q0 -21 -14.5 -35t-35.5 -14q-13 0 -29 10z" />
<glyph unicode="&#xcd;" horiz-adv-x="242" d="M68 43v615q0 22 15.5 37.5t37.5 15.5q21 0 37 -15.5t16 -37.5v-615q0 -22 -16 -37.5t-37 -15.5q-22 0 -37.5 15.5t-15.5 37.5zM224 825l-104 -63q-16 -10 -29 -10q-21 0 -35.5 14t-14.5 35q0 27 25 43l105 64q13 8 27 8q21 0 35.5 -14t14.5 -35q0 -28 -24 -42z" />
<glyph unicode="&#xce;" horiz-adv-x="242" d="M68 43v615q0 22 15.5 37.5t37.5 15.5q21 0 37 -15.5t16 -37.5v-615q0 -22 -16 -37.5t-37 -15.5q-22 0 -37.5 15.5t-15.5 37.5zM197 762l-69 49l-70 -49q-15 -10 -30 -10q-20 0 -34.5 14t-14.5 35q0 26 22 41l90 62q17 12 37 12q18 0 37 -12l89 -62q22 -15 22 -41 q0 -21 -14.5 -35t-34.5 -14q-15 0 -30 10z" />
<glyph unicode="&#xcf;" horiz-adv-x="242" d="M68 43v615q0 22 15.5 37.5t37.5 15.5q21 0 37 -15.5t16 -37.5v-615q0 -22 -16 -37.5t-37 -15.5q-22 0 -37.5 15.5t-15.5 37.5zM91 848q0 -24 -17 -41t-41 -17t-41 17t-17 41t17 41t41 17t41 -17t17 -41zM221 790q-25 0 -42 17t-17 41t17 41t42 17q24 0 41 -17t17 -41 t-17 -41t-41 -17z" />
<glyph unicode="&#xd0;" horiz-adv-x="637" d="M312 0h-132q-27 0 -46 19t-19 45v249h-46q-22 0 -36.5 14.5t-14.5 35.5q0 22 14.5 36.5t36.5 14.5h46v223q0 26 19 45t46 19h132q123 0 199 -75t76 -197v-157q0 -122 -76 -197t-199 -75zM481 270v161q0 80 -44 124.5t-124 44.5h-92v-186h94q22 0 37 -14.5t15 -36.5 q0 -21 -15 -35.5t-37 -14.5h-94v-212h92q80 0 124 45t44 124z" />
<glyph unicode="&#xd1;" horiz-adv-x="614" d="M438 20l-264 463v-441q0 -22 -15.5 -37t-36.5 -15q-22 0 -38 15t-16 37v611q0 24 17.5 41t40.5 17q35 0 51 -29l263 -464v441q0 22 16 37t38 15q21 0 36.5 -15t15.5 -37v-611q0 -24 -17.5 -41t-40.5 -17q-32 0 -50 30zM454 840q-21 -26 -45 -37q-29 -13 -56 -13 q-41 0 -75 26q-8 6 -17 6q-15 0 -24 -12q-17 -20 -39 -20q-19 0 -33 15t-14 33q0 16 9 28q20 26 45 38q24 12 56 12q38 0 75 -28q8 -6 17 -6q13 0 25 12q18 22 38 22t33.5 -14.5t13.5 -33.5q0 -16 -9 -28z" />
<glyph unicode="&#xd2;" horiz-adv-x="591" d="M541 465v-229q0 -110 -67.5 -178t-177.5 -68t-178 68t-68 178v229q0 110 68 178t178 68t177.5 -68t67.5 -178zM435 230v241q0 67 -36.5 104.5t-102.5 37.5q-67 0 -103.5 -37.5t-36.5 -104.5v-241q0 -67 36.5 -104.5t103.5 -37.5q66 0 102.5 37.5t36.5 104.5zM303 762 l-104 63q-24 14 -24 42q0 21 14.5 35t35.5 14q14 0 27 -8l105 -64q25 -16 25 -43q0 -21 -14.5 -35t-35.5 -14q-13 0 -29 10z" />
<glyph unicode="&#xd3;" horiz-adv-x="591" d="M541 465v-229q0 -110 -67.5 -178t-177.5 -68t-178 68t-68 178v229q0 110 68 178t178 68t177.5 -68t67.5 -178zM435 230v241q0 67 -36.5 104.5t-102.5 37.5q-67 0 -103.5 -37.5t-36.5 -104.5v-241q0 -67 36.5 -104.5t103.5 -37.5q66 0 102.5 37.5t36.5 104.5zM392 825 l-104 -63q-16 -10 -29 -10q-21 0 -35.5 14t-14.5 35q0 27 25 43l105 64q13 8 27 8q21 0 35.5 -14t14.5 -35q0 -28 -24 -42z" />
<glyph unicode="&#xd4;" horiz-adv-x="591" d="M541 465v-229q0 -110 -67.5 -178t-177.5 -68t-178 68t-68 178v229q0 110 68 178t178 68t177.5 -68t67.5 -178zM435 230v241q0 67 -36.5 104.5t-102.5 37.5q-67 0 -103.5 -37.5t-36.5 -104.5v-241q0 -67 36.5 -104.5t103.5 -37.5q66 0 102.5 37.5t36.5 104.5zM364 762 l-69 49l-70 -49q-15 -10 -30 -10q-20 0 -34.5 14t-14.5 35q0 26 22 41l90 62q17 12 37 12q18 0 37 -12l89 -62q22 -15 22 -41q0 -21 -14.5 -35t-34.5 -14q-15 0 -30 10z" />
<glyph unicode="&#xd5;" horiz-adv-x="591" d="M541 465v-229q0 -110 -67.5 -178t-177.5 -68t-178 68t-68 178v229q0 110 68 178t178 68t177.5 -68t67.5 -178zM435 230v241q0 67 -36.5 104.5t-102.5 37.5q-67 0 -103.5 -37.5t-36.5 -104.5v-241q0 -67 36.5 -104.5t103.5 -37.5q66 0 102.5 37.5t36.5 104.5zM442 840 q-21 -26 -45 -37q-29 -13 -56 -13q-41 0 -75 26q-8 6 -17 6q-15 0 -24 -12q-17 -20 -39 -20q-19 0 -33 15t-14 33q0 16 9 28q20 26 45 38q24 12 56 12q38 0 75 -28q8 -6 17 -6q13 0 25 12q18 22 38 22t33.5 -14.5t13.5 -33.5q0 -16 -9 -28z" />
<glyph unicode="&#xd6;" horiz-adv-x="591" d="M541 465v-229q0 -110 -67.5 -178t-177.5 -68t-178 68t-68 178v229q0 110 68 178t178 68t177.5 -68t67.5 -178zM435 230v241q0 67 -36.5 104.5t-102.5 37.5q-67 0 -103.5 -37.5t-36.5 -104.5v-241q0 -67 36.5 -104.5t103.5 -37.5q66 0 102.5 37.5t36.5 104.5zM259 848 q0 -24 -17 -41t-41 -17t-41 17t-17 41t17 41t41 17t41 -17t17 -41zM389 790q-25 0 -42 17t-17 41t17 41t42 17q24 0 41 -17t17 -41t-17 -41t-41 -17z" />
<glyph unicode="&#xd7;" d="M380 62l-121 121l-120 -121q-15 -15 -36 -15t-36.5 14.5t-15.5 36.5t15 37l121 120l-121 120q-15 15 -15 37q0 20 15 36t36 16q22 0 37 -15l120 -122l121 122q15 15 36 15t36.5 -15t15.5 -37t-15 -37l-121 -120l121 -120q15 -15 15 -37q0 -20 -15 -35.5t-37 -15.5 q-21 0 -36 15z" />
<glyph unicode="&#xd8;" horiz-adv-x="591" d="M181 14l-20 -43q-13 -25 -39 -25q-18 0 -31.5 13t-13.5 32q0 10 4 18l28 58q-59 65 -59 169v229q0 110 68 178t178 68q64 0 114 -24l20 43q12 25 39 25q18 0 31.5 -13t13.5 -31q0 -11 -4 -19l-28 -58q59 -65 59 -169v-229q0 -110 -67.5 -178t-177.5 -68q-61 0 -115 24z M163 177l204 421q-29 15 -71 15q-67 0 -103.5 -37.5t-36.5 -104.5v-235q0 -35 7 -59zM435 230v235q0 39 -7 59l-204 -421q30 -15 72 -15q66 0 102.5 37.5t36.5 104.5z" />
<glyph unicode="&#xd9;" horiz-adv-x="616" d="M451 233v425q0 22 15.5 37.5t37.5 15.5q21 0 37 -15.5t16 -37.5v-419q0 -112 -68.5 -180.5t-180.5 -68.5t-180.5 68.5t-68.5 180.5v419q0 22 16 37.5t38 15.5q21 0 36.5 -15.5t15.5 -37.5v-425q0 -68 37.5 -106.5t105.5 -38.5t105.5 38.5t37.5 106.5zM316 762l-104 63 q-24 14 -24 42q0 21 14.5 35t35.5 14q14 0 27 -8l105 -64q25 -16 25 -43q0 -21 -14.5 -35t-35.5 -14q-13 0 -29 10z" />
<glyph unicode="&#xda;" horiz-adv-x="616" d="M451 233v425q0 22 15.5 37.5t37.5 15.5q21 0 37 -15.5t16 -37.5v-419q0 -112 -68.5 -180.5t-180.5 -68.5t-180.5 68.5t-68.5 180.5v419q0 22 16 37.5t38 15.5q21 0 36.5 -15.5t15.5 -37.5v-425q0 -68 37.5 -106.5t105.5 -38.5t105.5 38.5t37.5 106.5zM405 825l-104 -63 q-16 -10 -29 -10q-21 0 -35.5 14t-14.5 35q0 27 25 43l105 64q13 8 27 8q21 0 35.5 -14t14.5 -35q0 -28 -24 -42z" />
<glyph unicode="&#xdb;" horiz-adv-x="616" d="M451 233v425q0 22 15.5 37.5t37.5 15.5q21 0 37 -15.5t16 -37.5v-419q0 -112 -68.5 -180.5t-180.5 -68.5t-180.5 68.5t-68.5 180.5v419q0 22 16 37.5t38 15.5q21 0 36.5 -15.5t15.5 -37.5v-425q0 -68 37.5 -106.5t105.5 -38.5t105.5 38.5t37.5 106.5zM377 762l-69 49 l-70 -49q-15 -10 -30 -10q-20 0 -34.5 14t-14.5 35q0 26 22 41l90 62q17 12 37 12q18 0 37 -12l89 -62q22 -15 22 -41q0 -21 -14.5 -35t-34.5 -14q-15 0 -30 10z" />
<glyph unicode="&#xdc;" horiz-adv-x="616" d="M451 233v425q0 22 15.5 37.5t37.5 15.5q21 0 37 -15.5t16 -37.5v-419q0 -112 -68.5 -180.5t-180.5 -68.5t-180.5 68.5t-68.5 180.5v419q0 22 16 37.5t38 15.5q21 0 36.5 -15.5t15.5 -37.5v-425q0 -68 37.5 -106.5t105.5 -38.5t105.5 38.5t37.5 106.5zM272 848 q0 -24 -17 -41t-41 -17t-41 17t-17 41t17 41t41 17t41 -17t17 -41zM402 790q-25 0 -42 17t-17 41t17 41t42 17q24 0 41 -17t17 -41t-17 -41t-41 -17z" />
<glyph unicode="&#xdd;" horiz-adv-x="522" d="M209 42v265l-193 326q-7 11 -7 26q0 21 15 36.5t36 15.5q31 0 45 -25l156 -274l156 274q14 25 45 25q20 0 35.5 -15.5t15.5 -36.5q0 -15 -7 -26l-193 -326v-265q0 -22 -15 -37t-37 -15t-37 15t-15 37zM358 825l-104 -63q-16 -10 -29 -10q-21 0 -35.5 14t-14.5 35 q0 27 25 43l105 64q13 8 27 8q21 0 35.5 -14t14.5 -35q0 -28 -24 -42z" />
<glyph unicode="&#xde;" horiz-adv-x="557" d="M291 130h-117v-88q0 -22 -15.5 -37t-36.5 -15q-22 0 -38 15t-16 37v617q0 22 16 37t38 15q21 0 36.5 -15t15.5 -37v-88h117q98 0 159 -61q62 -62 62 -163q0 -99 -59 -156q-61 -61 -162 -61zM174 231h117q51 0 81.5 31t30.5 85t-29 88.5t-83 34.5h-117v-239z" />
<glyph unicode="&#xdf;" horiz-adv-x="570" d="M401 207l-66 34q-84 43 -84 125q0 31 12.5 57t24 37t31.5 27q18 14 25 26.5t7 33.5q0 35 -27.5 52.5t-65.5 17.5t-67 -23t-29 -71v-480q0 -21 -15 -36t-36 -15q-22 0 -37 15t-15 36v480q0 82 56.5 135.5t142.5 53.5t141 -46.5t55 -118.5q0 -35 -13 -63.5t-23 -38.5 t-30 -26t-27 -26.5t-7 -27.5q0 -25 27 -40l67 -34q42 -21 66 -60t24 -84q0 -64 -46 -109.5t-111 -45.5q-61 0 -122 29q-29 14 -29 47q0 20 14.5 32.5t36.5 12.5q14 0 23 -5q45 -21 71 -21q25 0 42.5 16t17.5 44q0 23 -11.5 38.5t-22.5 21.5z" />
<glyph unicode="&#xe0;" horiz-adv-x="496" d="M437 347v-270q0 -21 -12 -37.5t-32 -23.5q-75 -26 -162 -26q-91 0 -143 44t-52 119q0 72 52 115q52 44 143 44h103v35q0 32 -22.5 53.5t-60.5 21.5q-63 0 -108 -27q-14 -9 -28 -9q-20 0 -34.5 13t-14.5 32q0 31 25 46q70 40 173 40q80 0 126.5 -49.5t46.5 -120.5zM334 98 v119h-103q-92 0 -92 -64q0 -68 92 -68q51 0 103 13zM260 575l-104 63q-24 14 -24 42q0 21 14.5 35t35.5 14q14 0 27 -8l105 -64q25 -16 25 -43q0 -21 -14.5 -35t-35.5 -14q-13 0 -29 10z" />
<glyph unicode="&#xe1;" horiz-adv-x="496" d="M437 347v-270q0 -21 -12 -37.5t-32 -23.5q-75 -26 -162 -26q-91 0 -143 44t-52 119q0 72 52 115q52 44 143 44h103v35q0 32 -22.5 53.5t-60.5 21.5q-63 0 -108 -27q-14 -9 -28 -9q-20 0 -34.5 13t-14.5 32q0 31 25 46q70 40 173 40q80 0 126.5 -49.5t46.5 -120.5zM334 98 v119h-103q-92 0 -92 -64q0 -68 92 -68q51 0 103 13zM338 638l-104 -63q-16 -10 -29 -10q-21 0 -35.5 14t-14.5 35q0 27 25 43l105 64q13 8 27 8q21 0 35.5 -14t14.5 -35q0 -28 -24 -42z" />
<glyph unicode="&#xe2;" horiz-adv-x="496" d="M437 347v-270q0 -21 -12 -37.5t-32 -23.5q-75 -26 -162 -26q-91 0 -143 44t-52 119q0 72 52 115q52 44 143 44h103v35q0 32 -22.5 53.5t-60.5 21.5q-63 0 -108 -27q-14 -9 -28 -9q-20 0 -34.5 13t-14.5 32q0 31 25 46q70 40 173 40q80 0 126.5 -49.5t46.5 -120.5zM334 98 v119h-103q-92 0 -92 -64q0 -68 92 -68q51 0 103 13zM317 575l-69 49l-70 -49q-15 -10 -30 -10q-20 0 -34.5 14t-14.5 35q0 26 22 41l90 62q17 12 37 12q18 0 37 -12l89 -62q22 -15 22 -41q0 -21 -14.5 -35t-34.5 -14q-15 0 -30 10z" />
<glyph unicode="&#xe3;" horiz-adv-x="496" d="M437 347v-270q0 -21 -12 -37.5t-32 -23.5q-75 -26 -162 -26q-91 0 -143 44t-52 119q0 72 52 115q52 44 143 44h103v35q0 32 -22.5 53.5t-60.5 21.5q-63 0 -108 -27q-14 -9 -28 -9q-20 0 -34.5 13t-14.5 32q0 31 25 46q70 40 173 40q80 0 126.5 -49.5t46.5 -120.5zM334 98 v119h-103q-92 0 -92 -64q0 -68 92 -68q51 0 103 13zM395 653q-21 -26 -45 -37q-29 -13 -56 -13q-41 0 -75 26q-7 6 -17 6q-15 0 -24 -12q-17 -20 -39 -20q-19 0 -33 15t-14 33q0 16 9 28q20 26 45 38q24 12 56 12q38 0 75 -28q7 -6 17 -6q13 0 25 12q18 22 38 22t33.5 -14.5 t13.5 -33.5q0 -16 -9 -28z" />
<glyph unicode="&#xe4;" horiz-adv-x="496" d="M437 347v-270q0 -21 -12 -37.5t-32 -23.5q-75 -26 -162 -26q-91 0 -143 44t-52 119q0 72 52 115q52 44 143 44h103v35q0 32 -22.5 53.5t-60.5 21.5q-63 0 -108 -27q-14 -9 -28 -9q-20 0 -34.5 13t-14.5 32q0 31 25 46q70 40 173 40q80 0 126.5 -49.5t46.5 -120.5zM334 98 v119h-103q-92 0 -92 -64q0 -68 92 -68q51 0 103 13zM212 661q0 -24 -17 -41t-41 -17t-41 17t-17 41t17 41t41 17t41 -17t17 -41zM342 603q-25 0 -42 17t-17 41t17 41t42 17q24 0 41 -17t17 -41t-17 -41t-41 -17z" />
<glyph unicode="&#xe5;" horiz-adv-x="496" d="M437 347v-270q0 -21 -12 -37.5t-32 -23.5q-75 -26 -162 -26q-91 0 -143 44t-52 119q0 72 52 115q52 44 143 44h103v35q0 32 -22.5 53.5t-60.5 21.5q-63 0 -108 -27q-14 -9 -28 -9q-20 0 -34.5 13t-14.5 32q0 31 25 46q70 40 173 40q80 0 126.5 -49.5t46.5 -120.5zM334 98 v119h-103q-92 0 -92 -64q0 -68 92 -68q51 0 103 13zM364 677q0 -48 -34 -82t-83 -34q-48 0 -82 34t-34 82t34 82t82 34q49 0 83 -34t34 -82zM247 636q17 0 28.5 11.5t11.5 29.5t-11.5 29.5t-28.5 11.5q-16 0 -27.5 -12t-11.5 -29t11.5 -29t27.5 -12z" />
<glyph unicode="&#xe6;" horiz-adv-x="777" d="M667 211h-232q0 -126 96 -126q49 0 108 26q12 5 21 5q19 0 34 -14t15 -33q0 -32 -26 -45q-71 -34 -152 -34q-103 0 -149 65q-53 -65 -153 -65q-89 0 -141 44t-52 119q0 78 53.5 117t139.5 39h103v38q0 29 -25 51.5t-58 22.5q-56 0 -107 -26q-16 -8 -29 -8q-20 0 -34.5 14 t-14.5 34q0 32 27 45q78 36 171 36q73 0 125 -59q53 60 144 60t145 -56q56 -56 56 -144v-41q0 -27 -19 -46t-46 -19zM331 211h-102q-49 0 -69.5 -19.5t-20.5 -38.5q0 -68 90 -68q57 0 79.5 33t22.5 93zM435 309h194q0 61 -24 87t-74 26q-46 0 -71 -25.5t-25 -87.5z" />
<glyph unicode="&#xe7;" horiz-adv-x="440" d="M45 191v126q0 89 55 144q56 56 145 56q73 0 139 -32q29 -14 29 -46q0 -19 -14 -33t-35 -14q-10 0 -24 6q-54 24 -95 24q-46 0 -71.5 -25.5t-25.5 -71.5v-142q0 -46 25.5 -71.5t71.5 -25.5t98 25q9 5 22 5q19 0 33.5 -14t14.5 -34q0 -32 -30 -46q-49 -24 -104 -30l-4 -14 q50 -30 50 -74q0 -72 -97 -113q-30 -14 -52 -14q-17 0 -30 11.5t-13 30.5q0 32 33 41q1 0 13 2.5t19 5.5l17 6q10 3 15 8.5t5 11.5q0 9 -6.5 13.5t-25.5 11.5q-23 8 -23 36q0 11 3 23l5 19q-51 12 -88 49q-55 55 -55 145z" />
<glyph unicode="&#xe8;" horiz-adv-x="491" d="M381 205h-233q0 -58 20 -86q26 -34 77 -34q49 0 108 26q12 5 21 5q19 0 34 -14t15 -33q0 -32 -26 -45q-71 -34 -152 -34q-89 0 -145 56q-55 55 -55 145v126q0 89 55 144q56 56 145 56q91 0 145 -56q56 -56 56 -144v-47q0 -27 -19 -46t-46 -19zM148 300h195q0 122 -98 122 q-97 0 -97 -122zM257 575l-104 63q-24 14 -24 42q0 21 14.5 35t35.5 14q14 0 27 -8l105 -64q25 -16 25 -43q0 -21 -14.5 -35t-35.5 -14q-13 0 -29 10z" />
<glyph unicode="&#xe9;" horiz-adv-x="491" d="M381 205h-233q0 -58 20 -86q26 -34 77 -34q49 0 108 26q12 5 21 5q19 0 34 -14t15 -33q0 -32 -26 -45q-71 -34 -152 -34q-89 0 -145 56q-55 55 -55 145v126q0 89 55 144q56 56 145 56q91 0 145 -56q56 -56 56 -144v-47q0 -27 -19 -46t-46 -19zM148 300h195q0 122 -98 122 q-97 0 -97 -122zM335 638l-104 -63q-16 -10 -29 -10q-21 0 -35.5 14t-14.5 35q0 27 25 43l105 64q13 8 27 8q21 0 35.5 -14t14.5 -35q0 -28 -24 -42z" />
<glyph unicode="&#xea;" horiz-adv-x="491" d="M381 205h-233q0 -58 20 -86q26 -34 77 -34q49 0 108 26q12 5 21 5q19 0 34 -14t15 -33q0 -32 -26 -45q-71 -34 -152 -34q-89 0 -145 56q-55 55 -55 145v126q0 89 55 144q56 56 145 56q91 0 145 -56q56 -56 56 -144v-47q0 -27 -19 -46t-46 -19zM148 300h195q0 122 -98 122 q-97 0 -97 -122zM314 575l-69 49l-70 -49q-15 -10 -30 -10q-20 0 -34.5 14t-14.5 35q0 26 22 41l90 62q17 12 37 12q18 0 37 -12l89 -62q22 -15 22 -41q0 -21 -14.5 -35t-34.5 -14q-15 0 -30 10z" />
<glyph unicode="&#xeb;" horiz-adv-x="491" d="M381 205h-233q0 -58 20 -86q26 -34 77 -34q49 0 108 26q12 5 21 5q19 0 34 -14t15 -33q0 -32 -26 -45q-71 -34 -152 -34q-89 0 -145 56q-55 55 -55 145v126q0 89 55 144q56 56 145 56q91 0 145 -56q56 -56 56 -144v-47q0 -27 -19 -46t-46 -19zM148 300h195q0 122 -98 122 q-97 0 -97 -122zM209 661q0 -24 -17 -41t-41 -17t-41 17t-17 41t17 41t41 17t41 -17t17 -41zM339 603q-25 0 -42 17t-17 41t17 41t42 17q24 0 41 -17t17 -41t-17 -41t-41 -17z" />
<glyph unicode="&#xec;" horiz-adv-x="242" d="M70 42v423q0 22 15 37t37 15q21 0 36 -15t15 -37v-423q0 -22 -15 -37t-36 -15q-22 0 -37 15t-15 37zM133 575l-104 63q-24 14 -24 42q0 21 14.5 35t35.5 14q14 0 27 -8l105 -64q25 -16 25 -43q0 -21 -14.5 -35t-35.5 -14q-13 0 -29 10z" />
<glyph unicode="&#xed;" horiz-adv-x="242" d="M70 42v423q0 22 15 37t37 15q21 0 36 -15t15 -37v-423q0 -22 -15 -37t-36 -15q-22 0 -37 15t-15 37zM211 638l-104 -63q-16 -10 -29 -10q-21 0 -35.5 14t-14.5 35q0 27 25 43l105 64q13 8 27 8q21 0 35.5 -14t14.5 -35q0 -28 -24 -42z" />
<glyph unicode="&#xee;" horiz-adv-x="242" d="M70 42v423q0 22 15 37t37 15q21 0 36 -15t15 -37v-423q0 -22 -15 -37t-36 -15q-22 0 -37 15t-15 37zM190 575l-69 49l-70 -49q-15 -10 -30 -10q-20 0 -34.5 14t-14.5 35q0 26 22 41l90 62q17 12 37 12q18 0 37 -12l89 -62q22 -15 22 -41q0 -21 -14.5 -35t-34.5 -14 q-15 0 -30 10z" />
<glyph unicode="&#xef;" horiz-adv-x="242" d="M70 42v423q0 22 15 37t37 15q21 0 36 -15t15 -37v-423q0 -22 -15 -37t-36 -15q-22 0 -37 15t-15 37zM85 661q0 -24 -17 -41t-41 -17t-41 17t-17 41t17 41t41 17t41 -17t17 -41zM215 603q-25 0 -42 17t-17 41t17 41t42 17q24 0 41 -17t17 -41t-17 -41t-41 -17z" />
<glyph unicode="&#xf0;" horiz-adv-x="528" d="M465 299v-99q0 -94 -58 -152t-152 -58t-152 58t-58 152v76q0 94 58 152t152 58q47 0 89 -23q-17 56 -60 97l-93 -46l-15 -4h-1q-15 0 -27.5 11t-12.5 28q0 24 22 35l51 25q-18 7 -35 10q-38 8 -38 46q0 20 13.5 33t34.5 13q8 0 16 -2q61 -15 113 -49l97 47q8 4 17 4 q16 0 27.5 -11t11.5 -28q0 -24 -22 -35l-69 -34q33 -38 54 -89q37 -90 37 -215zM362 191v93q0 48 -29 77.5t-78 29.5q-51 0 -79 -28t-28 -79v-93q0 -50 28 -78t79 -28t79 28t28 78z" />
<glyph unicode="&#xf1;" horiz-adv-x="523" d="M361 42v283q0 46 -26 71.5t-72 25.5q-47 0 -97 -13v-367q0 -22 -15 -37t-36 -15q-22 0 -37 15t-15 37v388q0 46 44 61q75 26 156 26q91 0 145 -56q56 -56 56 -144v-275q0 -22 -15 -37t-37 -15t-36.5 15t-14.5 37zM408 653q-21 -26 -45 -37q-29 -13 -56 -13q-41 0 -75 26 q-8 6 -17 6q-15 0 -24 -12q-17 -20 -39 -20q-19 0 -33 15t-14 33q0 16 9 28q20 26 45 38q24 12 56 12q38 0 75 -28q8 -6 17 -6q13 0 25 12q18 22 38 22t33.5 -14.5t13.5 -33.5q0 -16 -9 -28z" />
<glyph unicode="&#xf2;" horiz-adv-x="510" d="M465 307v-107q0 -94 -58 -152t-152 -58t-152 58t-58 152v107q0 94 58 152t152 58t152 -58t58 -152zM362 191v124q0 48 -29 77.5t-78 29.5q-51 0 -79 -28t-28 -79v-124q0 -50 28 -78t79 -28t79 28t28 78zM267 575l-104 63q-24 14 -24 42q0 21 14.5 35t35.5 14q14 0 27 -8 l105 -64q25 -16 25 -43q0 -21 -14.5 -35t-35.5 -14q-13 0 -29 10z" />
<glyph unicode="&#xf3;" horiz-adv-x="510" d="M465 307v-107q0 -94 -58 -152t-152 -58t-152 58t-58 152v107q0 94 58 152t152 58t152 -58t58 -152zM362 191v124q0 48 -29 77.5t-78 29.5q-51 0 -79 -28t-28 -79v-124q0 -50 28 -78t79 -28t79 28t28 78zM345 638l-104 -63q-16 -10 -29 -10q-21 0 -35.5 14t-14.5 35 q0 27 25 43l105 64q13 8 27 8q21 0 35.5 -14t14.5 -35q0 -28 -24 -42z" />
<glyph unicode="&#xf4;" horiz-adv-x="510" d="M465 307v-107q0 -94 -58 -152t-152 -58t-152 58t-58 152v107q0 94 58 152t152 58t152 -58t58 -152zM362 191v124q0 48 -29 77.5t-78 29.5q-51 0 -79 -28t-28 -79v-124q0 -50 28 -78t79 -28t79 28t28 78zM324 575l-69 49l-70 -49q-15 -10 -30 -10q-20 0 -34.5 14t-14.5 35 q0 26 22 41l90 62q17 12 37 12q18 0 37 -12l89 -62q22 -15 22 -41q0 -21 -14.5 -35t-34.5 -14q-15 0 -30 10z" />
<glyph unicode="&#xf5;" horiz-adv-x="510" d="M465 307v-107q0 -94 -58 -152t-152 -58t-152 58t-58 152v107q0 94 58 152t152 58t152 -58t58 -152zM362 191v124q0 48 -29 77.5t-78 29.5q-51 0 -79 -28t-28 -79v-124q0 -50 28 -78t79 -28t79 28t28 78zM402 653q-21 -26 -45 -37q-29 -13 -56 -13q-41 0 -75 26 q-8 6 -17 6q-15 0 -24 -12q-17 -20 -39 -20q-19 0 -33 15t-14 33q0 16 9 28q20 26 45 38q24 12 56 12q38 0 75 -28q8 -6 17 -6q13 0 25 12q18 22 38 22t33.5 -14.5t13.5 -33.5q0 -16 -9 -28z" />
<glyph unicode="&#xf6;" horiz-adv-x="510" d="M465 307v-107q0 -94 -58 -152t-152 -58t-152 58t-58 152v107q0 94 58 152t152 58t152 -58t58 -152zM362 191v124q0 48 -29 77.5t-78 29.5q-51 0 -79 -28t-28 -79v-124q0 -50 28 -78t79 -28t79 28t28 78zM219 661q0 -24 -17 -41t-41 -17t-41 17t-17 41t17 41t41 17t41 -17 t17 -41zM349 603q-25 0 -42 17t-17 41t17 41t42 17q24 0 41 -17t17 -41t-17 -41t-41 -17z" />
<glyph unicode="&#xf7;" d="M325 55q0 -27 -19 -46t-46 -19t-45.5 19t-18.5 46t18.5 46t45.5 19t46 -19t19 -46zM325 452q0 -26 -19 -45t-46 -19t-45.5 19t-18.5 45q0 27 18.5 46t45.5 19t46 -19t19 -46zM458 206h-397q-20 0 -34 14.5t-14 34.5t13.5 34.5t34.5 14.5h397q20 0 34.5 -14.5t14.5 -34.5 t-14.5 -34.5t-34.5 -14.5z" />
<glyph unicode="&#xf8;" horiz-adv-x="510" d="M173 4l-18 -34q-13 -24 -39 -24q-18 0 -31 13t-13 32q0 8 5 20l22 42q-54 57 -54 147v107q0 94 58 152t152 58q43 0 82 -14l18 34q13 24 39 24q17 0 30.5 -13t13.5 -31q0 -9 -5 -21l-22 -41q54 -59 54 -148v-107q0 -94 -58 -152t-152 -58q-43 0 -82 14zM153 154l139 263 q-17 5 -37 5q-51 0 -79 -28t-28 -79v-124q0 -17 5 -37zM362 191v124q0 22 -6 38l-138 -264q17 -4 37 -4q51 0 79 28t28 78z" />
<glyph unicode="&#xf9;" horiz-adv-x="523" d="M357 98v367q0 22 14.5 37t36.5 15t37 -15t15 -37v-388q0 -21 -12 -37.5t-32 -23.5q-75 -26 -157 -26q-93 0 -147 54q-53 53 -53 147v274q0 22 15 37t37 15q21 0 36 -15t15 -37v-282q0 -46 25.5 -71.5t71.5 -25.5q51 0 98 12zM273 575l-104 63q-24 14 -24 42q0 21 14.5 35 t35.5 14q14 0 27 -8l105 -64q25 -16 25 -43q0 -21 -14.5 -35t-35.5 -14q-13 0 -29 10z" />
<glyph unicode="&#xfa;" horiz-adv-x="523" d="M357 98v367q0 22 14.5 37t36.5 15t37 -15t15 -37v-388q0 -21 -12 -37.5t-32 -23.5q-75 -26 -157 -26q-93 0 -147 54q-53 53 -53 147v274q0 22 15 37t37 15q21 0 36 -15t15 -37v-282q0 -46 25.5 -71.5t71.5 -25.5q51 0 98 12zM356 638l-104 -63q-16 -10 -29 -10 q-21 0 -35.5 14t-14.5 35q0 27 25 43l105 64q13 8 27 8q21 0 35.5 -14t14.5 -35q0 -28 -24 -42z" />
<glyph unicode="&#xfb;" horiz-adv-x="523" d="M357 98v367q0 22 14.5 37t36.5 15t37 -15t15 -37v-388q0 -21 -12 -37.5t-32 -23.5q-75 -26 -157 -26q-93 0 -147 54q-53 53 -53 147v274q0 22 15 37t37 15q21 0 36 -15t15 -37v-282q0 -46 25.5 -71.5t71.5 -25.5q51 0 98 12zM330 575l-69 49l-70 -49q-15 -10 -30 -10 q-20 0 -34.5 14t-14.5 35q0 26 22 41l90 62q17 12 37 12q18 0 37 -12l89 -62q22 -15 22 -41q0 -21 -14.5 -35t-34.5 -14q-15 0 -30 10z" />
<glyph unicode="&#xfc;" horiz-adv-x="523" d="M357 98v367q0 22 14.5 37t36.5 15t37 -15t15 -37v-388q0 -21 -12 -37.5t-32 -23.5q-75 -26 -157 -26q-93 0 -147 54q-53 53 -53 147v274q0 22 15 37t37 15q21 0 36 -15t15 -37v-282q0 -46 25.5 -71.5t71.5 -25.5q51 0 98 12zM225 661q0 -24 -17 -41t-41 -17t-41 17 t-17 41t17 41t41 17t41 -17t17 -41zM355 603q-25 0 -42 17t-17 41t17 41t42 17q24 0 41 -17t17 -41t-17 -41t-41 -17z" />
<glyph unicode="&#xfd;" horiz-adv-x="457" d="M163 -62l25 82l-165 427q-4 12 -4 19q0 20 16 35.5t37 15.5q35 0 47 -33l120 -329l103 327q12 35 48 35q21 0 37 -15t16 -37q0 -9 -3 -16l-179 -535q-21 -63 -71.5 -100t-120.5 -37q-21 0 -36 13.5t-15 35.5q0 19 14.5 33t34.5 15q77 3 96 64zM318 638l-104 -63 q-16 -10 -29 -10q-21 0 -35.5 14t-14.5 35q0 27 25 43l105 64q13 8 27 8q21 0 35.5 -14t14.5 -35q0 -28 -24 -42z" />
<glyph unicode="&#xfe;" horiz-adv-x="514" d="M63 -171v830q0 22 15 37t37 15q21 0 36 -15t15 -37v-161q49 19 97 19q89 0 145 -56t56 -144v-126q0 -89 -56 -145q-54 -56 -145 -56q-48 0 -97 19v-180q0 -22 -15 -37t-36 -15q-22 0 -37 15t-15 37zM361 182v143q0 46 -26 71.5t-72 25.5q-53 0 -97 -36v-266 q43 -35 97 -35q47 0 72.5 25.5t25.5 71.5z" />
<glyph unicode="&#xff;" horiz-adv-x="457" d="M163 -62l25 82l-165 427q-4 12 -4 19q0 20 16 35.5t37 15.5q35 0 47 -33l120 -329l103 327q12 35 48 35q21 0 37 -15t16 -37q0 -9 -3 -16l-179 -535q-21 -63 -71.5 -100t-120.5 -37q-21 0 -36 13.5t-15 35.5q0 19 14.5 33t34.5 15q77 3 96 64zM192 661q0 -24 -17 -41 t-41 -17t-41 17t-17 41t17 41t41 17t41 -17t17 -41zM322 603q-25 0 -42 17t-17 41t17 41t42 17q24 0 41 -17t17 -41t-17 -41t-41 -17z" />
<glyph unicode="&#x152;" horiz-adv-x="883" d="M799 0h-297q-39 0 -57 34q-61 -44 -149 -44q-110 0 -178 68t-68 178v229q0 110 68 178t178 68q85 0 148 -44q19 34 58 34h290q22 0 37 -15t15 -37q0 -21 -15 -35t-37 -14h-250v-186h237q22 0 37 -14.5t15 -36.5q0 -21 -15 -35.5t-37 -14.5h-237v-212h257q21 0 36.5 -14.5 t15.5 -35.5t-15.5 -36t-36.5 -15zM436 230v241q0 67 -36.5 104.5t-103.5 37.5t-103.5 -37.5t-36.5 -104.5v-241q0 -67 36.5 -104.5t103.5 -37.5t103.5 37.5t36.5 104.5z" />
<glyph unicode="&#x153;" horiz-adv-x="807" d="M697 205h-233q0 -58 20 -86q26 -34 77 -34q49 0 108 26q12 5 21 5q19 0 34 -14t15 -33q0 -32 -26 -45q-71 -34 -152 -34q-91 0 -151 63q-59 -63 -155 -63q-94 0 -152 58t-58 152v107q0 94 58 152t152 58q97 0 155 -64q60 64 151 64t145 -56q56 -56 56 -144v-47 q0 -27 -19 -46t-46 -19zM362 191v124q0 48 -29 77.5t-78 29.5q-51 0 -79 -28t-28 -79v-124q0 -50 28 -78t79 -28t79 28t28 78zM464 303h195q0 119 -98 119q-97 0 -97 -119z" />
<glyph unicode="&#x178;" horiz-adv-x="522" d="M209 42v265l-193 326q-7 11 -7 26q0 21 15 36.5t36 15.5q31 0 45 -25l156 -274l156 274q14 25 45 25q20 0 35.5 -15.5t15.5 -36.5q0 -15 -7 -26l-193 -326v-265q0 -22 -15 -37t-37 -15t-37 15t-15 37zM225 848q0 -24 -17 -41t-41 -17t-41 17t-17 41t17 41t41 17t41 -17 t17 -41zM355 790q-25 0 -42 17t-17 41t17 41t42 17q24 0 41 -17t17 -41t-17 -41t-41 -17z" />
<glyph unicode="&#x2c6;" horiz-adv-x="435" d="M287 575l-69 49l-70 -49q-15 -10 -30 -10q-20 0 -34.5 14t-14.5 35q0 26 22 41l90 62q17 12 37 12q18 0 37 -12l89 -62q22 -15 22 -41q0 -21 -14.5 -35t-34.5 -14q-15 0 -30 10z" />
<glyph unicode="&#x2dc;" horiz-adv-x="435" d="M364 652q-21 -26 -45 -37q-29 -13 -56 -13q-41 0 -75 26q-8 6 -17 6q-15 0 -24 -12q-17 -20 -39 -20q-19 0 -33 15t-14 33q0 16 9 28q20 26 45 38q24 12 56 12q38 0 75 -28q8 -6 17 -6q13 0 25 12q18 22 38 22t33.5 -14.5t13.5 -33.5q0 -16 -9 -28z" />
<glyph unicode="&#x2000;" horiz-adv-x="490" />
<glyph unicode="&#x2001;" horiz-adv-x="981" />
<glyph unicode="&#x2002;" horiz-adv-x="490" />
<glyph unicode="&#x2003;" horiz-adv-x="981" />
<glyph unicode="&#x2004;" horiz-adv-x="327" />
<glyph unicode="&#x2005;" horiz-adv-x="245" />
<glyph unicode="&#x2006;" horiz-adv-x="163" />
<glyph unicode="&#x2007;" horiz-adv-x="163" />
<glyph unicode="&#x2008;" horiz-adv-x="122" />
<glyph unicode="&#x2009;" horiz-adv-x="196" />
<glyph unicode="&#x200a;" horiz-adv-x="54" />
<glyph unicode="&#x2010;" horiz-adv-x="438" d="M335 249h-233q-20 0 -34 14.5t-14 34.5t13.5 34.5t34.5 14.5h233q20 0 34.5 -14.5t14.5 -34.5t-14.5 -34.5t-34.5 -14.5z" />
<glyph unicode="&#x2011;" horiz-adv-x="438" d="M335 249h-233q-20 0 -34 14.5t-14 34.5t13.5 34.5t34.5 14.5h233q20 0 34.5 -14.5t14.5 -34.5t-14.5 -34.5t-34.5 -14.5z" />
<glyph unicode="&#x2013;" horiz-adv-x="759" d="M602 249h-446q-20 0 -34 14.5t-14 34.5t13.5 34.5t34.5 14.5h446q20 0 34.5 -14.5t14.5 -34.5t-14.5 -34.5t-34.5 -14.5z" />
<glyph unicode="&#x2014;" horiz-adv-x="1185" d="M1028 249h-872q-20 0 -34 14.5t-14 34.5t13.5 34.5t34.5 14.5h872q20 0 34.5 -14.5t14.5 -34.5t-14.5 -34.5t-34.5 -14.5z" />
<glyph unicode="&#x2018;" horiz-adv-x="242" d="M199 642l-48 -142q-5 -16 -19 -25.5t-30 -9.5q-22 0 -37 16t-15 36q0 8 3 17l48 142q12 35 49 35q22 0 37 -16t15 -36q0 -8 -3 -17z" />
<glyph unicode="&#x2019;" horiz-adv-x="242" d="M189 642l-48 -142q-5 -16 -19 -25.5t-30 -9.5q-22 0 -37 16t-15 36q0 8 3 17l48 142q12 35 49 35q22 0 37 -16t15 -36q0 -8 -3 -17z" />
<glyph unicode="&#x201a;" horiz-adv-x="242" d="M199 53l-48 -142q-5 -16 -19 -25.5t-30 -9.5q-23 0 -37.5 15.5t-14.5 35.5q0 8 3 17l48 142q5 16 19 25.5t30 9.5q21 0 36.5 -15.5t15.5 -35.5q0 -8 -3 -17z" />
<glyph unicode="&#x201c;" horiz-adv-x="448" d="M203 642l-48 -142q-5 -16 -19 -25.5t-30 -9.5q-22 0 -37 16t-15 36q0 8 3 17l48 142q12 35 49 35q22 0 37 -16t15 -36q0 -8 -3 -17zM391 642l-49 -142q-12 -35 -49 -35q-21 0 -36.5 15.5t-15.5 36.5q0 8 3 17l49 142q12 35 48 35q21 0 37 -15t16 -37q0 -8 -3 -17z" />
<glyph unicode="&#x201d;" horiz-adv-x="430" d="M189 642l-48 -142q-5 -16 -19 -25.5t-30 -9.5q-22 0 -37 16t-15 36q0 8 3 17l48 142q12 35 49 35q22 0 37 -16t15 -36q0 -8 -3 -17zM377 642l-49 -142q-12 -35 -49 -35q-21 0 -36.5 15.5t-15.5 36.5q0 8 3 17l49 142q12 35 48 35q21 0 37 -15t16 -37q0 -8 -3 -17z" />
<glyph unicode="&#x201e;" horiz-adv-x="430" d="M199 53l-48 -142q-5 -16 -19 -25.5t-30 -9.5q-23 0 -37.5 15.5t-14.5 35.5q0 8 3 17l48 142q5 16 19 25.5t30 9.5q21 0 36.5 -15.5t15.5 -35.5q0 -8 -3 -17zM387 53l-49 -142q-13 -35 -49 -35q-22 0 -37 14t-15 37q0 8 3 17l49 142q12 35 48 35q21 0 37 -15t16 -37 q0 -9 -3 -16z" />
<glyph unicode="&#x2022;" horiz-adv-x="514" d="M370 316q0 -47 -33 -80t-80 -33t-80 33t-33 80q0 46 33 79.5t80 33.5t80 -33t33 -80z" />
<glyph unicode="&#x2026;" horiz-adv-x="808" d="M469 57q0 -27 -19 -46t-46 -19t-46 19t-19 46q0 26 19 45t46 19t46 -19t19 -45zM675 -8q-26 0 -45 19t-19 46q0 26 19 45t45 19q27 0 46 -19t19 -45q0 -27 -19 -46t-46 -19zM133 -8q-27 0 -46 19t-19 46q0 26 19 45t46 19q26 0 45 -19t19 -45q0 -27 -19 -46t-45 -19z" />
<glyph unicode="&#x202f;" horiz-adv-x="196" />
<glyph unicode="&#x2039;" horiz-adv-x="312" d="M164 76l-98 137q-12 17 -12 37q0 21 12 38l98 136q16 22 42 22q21 0 36.5 -15t15.5 -37q0 -17 -10 -30l-81 -114l81 -113q10 -13 10 -31q0 -21 -15 -36t-37 -15q-27 0 -42 21z" />
<glyph unicode="&#x203a;" horiz-adv-x="312" d="M246 213l-98 -137q-15 -21 -42 -21q-22 0 -37 15t-15 36q0 18 10 31l81 113l-81 114q-10 13 -10 30q0 22 15.5 37t36.5 15q26 0 42 -22l98 -136q12 -17 12 -38q0 -20 -12 -37z" />
<glyph unicode="&#x205f;" horiz-adv-x="245" />
<glyph unicode="&#x20ac;" d="M362 212h-157q22 -127 133 -127q48 0 98 32q16 11 30 11q21 0 35.5 -14.5t14.5 -35.5q0 -25 -24 -41q-72 -47 -154 -47q-104 0 -164 59.5t-72 162.5h-42q-22 0 -36.5 14t-14.5 35q0 22 14.5 35.5t36.5 13.5h39v85h-39q-22 0 -36.5 13.5t-14.5 34.5q0 22 14.5 36t36.5 14 h42q14 101 74 159.5t162 58.5q82 0 154 -47q24 -16 24 -40q0 -21 -14 -35.5t-35 -14.5q-13 0 -31 10q-54 32 -98 32q-106 0 -132 -123h156q21 0 36 -14.5t15 -35.5t-15 -34.5t-36 -13.5h-160v-85h160q21 0 36 -14t15 -35t-15 -35t-36 -14z" />
<glyph unicode="&#x2122;" horiz-adv-x="825" d="M148 302v325h-73q-17 0 -28 10.5t-11 26.5t11 26.5t28 10.5h224q17 0 28 -10.5t11 -26.5t-11 -26.5t-28 -10.5h-73v-325q0 -16 -11.5 -27t-27.5 -11t-27.5 11t-11.5 27zM676 302v225l-67 -135q-12 -24 -38 -24q-24 0 -37 24l-67 135v-225q0 -16 -11.5 -27t-27.5 -11 t-27 11t-11 27v362q0 18 12.5 30.5t29.5 12.5q26 0 38 -24l101 -202l102 202q12 24 38 24q17 0 29.5 -12.5t12.5 -30.5v-362q0 -16 -11.5 -27t-27.5 -11t-27 11t-11 27z" />
</font>
</defs>
</svg>
